<mxfile host="app.diagrams.net" modified="2021-04-13T12:32:53.996Z" agent="5.0 (Windows)" etag="Acfh20n6cF7GRuFWUq1T" version="14.6.0" type="github" pages="7">
  <diagram id="WPIGd1P5IR4SWYrxd255" name="Thoughts">
    <mxGraphModel dx="1422" dy="1267" grid="0" gridSize="10" guides="1" tooltips="1" connect="1" arrows="1" fold="1" page="0" pageScale="1" pageWidth="1400" pageHeight="1700" math="0" shadow="0">
      <root>
        <mxCell id="0" />
        <mxCell id="1" parent="0" />
        <mxCell id="TodJVUwYOGqo_OfT06sR-1" value="&lt;span style=&quot;font-size: 18px&quot;&gt;&lt;b&gt;Profile (Header)&lt;/b&gt;&lt;/span&gt;&lt;br&gt;&lt;span style=&quot;font-size: 18px&quot;&gt;Full Name&lt;/span&gt;&lt;br&gt;&lt;span style=&quot;font-size: 18px&quot;&gt;User ID&lt;/span&gt;&lt;br&gt;&lt;span style=&quot;font-size: 18px&quot;&gt;CN&amp;nbsp;&amp;nbsp;&lt;br&gt;&lt;/span&gt;&lt;br&gt;&lt;b&gt;&lt;font style=&quot;font-size: 18px&quot;&gt;User Preference Settings&lt;/font&gt;&lt;/b&gt;&lt;font size=&quot;1&quot;&gt;&lt;b style=&quot;font-size: 18px&quot;&gt;&lt;br&gt;&lt;br&gt;Application Name &lt;/b&gt;&lt;span style=&quot;font-size: 18px&quot;&gt;(Layout - expansion panels, tabs)&lt;br&gt;&lt;/span&gt;&lt;/font&gt;&lt;font&gt;&lt;br&gt;&lt;br&gt;&lt;/font&gt;&lt;blockquote style=&quot;margin: 0px 0px 0px 40px ; border: none ; padding: 0px ; font-size: 15px&quot;&gt;&lt;font style=&quot;font-size: 15px&quot;&gt;&lt;b&gt;Notifications&lt;/b&gt; - &lt;i&gt;TBD (predetermined by business and incorporated in app or managed per event by user.&lt;/i&gt;&lt;/font&gt;&lt;/blockquote&gt;&lt;blockquote style=&quot;margin: 0px 0px 0px 40px ; border: none ; padding: 0px ; font-size: 15px&quot;&gt;&lt;font style=&quot;font-size: 15px&quot;&gt;&lt;font style=&quot;font-size: 15px&quot;&gt;&lt;ol&gt;&lt;li&gt;&lt;span&gt;Active Subscriptions&lt;/span&gt;&lt;/li&gt;&lt;/ol&gt;&lt;/font&gt;&lt;font style=&quot;font-size: 15px&quot;&gt;&lt;b&gt;Appearance&lt;/b&gt;&lt;/font&gt;&lt;/font&gt;&lt;/blockquote&gt;&lt;font style=&quot;font-size: 15px&quot;&gt;&lt;font style=&quot;font-size: 15px&quot;&gt;&lt;ol&gt;&lt;ol&gt;&lt;li&gt;&lt;font style=&quot;font-size: 15px&quot;&gt;Themes&lt;/font&gt;&lt;/li&gt;&lt;li&gt;&lt;font style=&quot;font-size: 15px&quot;&gt;Startup Filters??- for example, IMA would only show me Assigned systems.&amp;nbsp; Eva would only show me Favorite Datasets.&lt;/font&gt;&lt;/li&gt;&lt;/ol&gt;&lt;/ol&gt;&lt;/font&gt;&lt;/font&gt;&lt;blockquote style=&quot;margin: 0px 0px 0px 40px ; border: none ; padding: 0px ; font-size: 15px&quot;&gt;&lt;font style=&quot;font-size: 15px&quot;&gt;&lt;font style=&quot;font-size: 15px&quot;&gt;&lt;div&gt;&lt;b&gt;Search&lt;/b&gt;&lt;/div&gt;&lt;/font&gt;&lt;/font&gt;&lt;/blockquote&gt;&lt;div style=&quot;font-size: 15px&quot;&gt;&lt;ol&gt;&lt;ol&gt;&lt;li&gt;&lt;font style=&quot;font-size: 15px&quot;&gt;Number of Search Results (page size)&lt;/font&gt;&lt;/li&gt;&lt;li&gt;&lt;font style=&quot;font-size: 15px&quot;&gt;Saved queries???&lt;/font&gt;&lt;/li&gt;&lt;/ol&gt;&lt;/ol&gt;&lt;/div&gt;&lt;blockquote style=&quot;margin: 0px 0px 0px 40px ; border: none ; padding: 0px ; font-size: 15px&quot;&gt;&lt;font style=&quot;font-size: 15px&quot;&gt;&lt;font style=&quot;font-size: 15px&quot;&gt;&lt;b&gt;Application Access&lt;/b&gt;&lt;/font&gt;&lt;/font&gt;&lt;/blockquote&gt;&lt;div style=&quot;font-size: 15px&quot;&gt;&lt;ol&gt;&lt;ol&gt;&lt;li&gt;&lt;font style=&quot;font-size: 15px&quot;&gt;Role membership&lt;/font&gt;&lt;/li&gt;&lt;/ol&gt;&lt;/ol&gt;&lt;div&gt;&lt;font style=&quot;font-size: 15px&quot;&gt;&lt;br&gt;&lt;/font&gt;&lt;/div&gt;&lt;/div&gt;&lt;blockquote style=&quot;margin: 0px 0px 0px 40px ; border: none ; padding: 0px ; font-size: 15px&quot;&gt;&lt;div&gt;&lt;b&gt;&lt;font style=&quot;font-size: 15px&quot;&gt;Reset to Default Settings&lt;/font&gt;&lt;/b&gt;&lt;/div&gt;&lt;/blockquote&gt;&lt;font style=&quot;font-size: 15px&quot;&gt;&lt;span&gt;&lt;br&gt;&lt;/span&gt;&lt;/font&gt;" style="text;html=1;strokeColor=none;fillColor=none;align=left;verticalAlign=middle;whiteSpace=wrap;rounded=0;" parent="1" vertex="1">
          <mxGeometry x="40" y="77" width="636" height="201" as="geometry" />
        </mxCell>
        <mxCell id="aZ1q8WLzLSEbGg7G-zQn-20" value="" style="dashed=0;shape=rect;fillColor=#ffffff;strokeColor=none;align=left;" parent="1" vertex="1">
          <mxGeometry x="1441" y="-15" width="358" height="642" as="geometry" />
        </mxCell>
        <mxCell id="aZ1q8WLzLSEbGg7G-zQn-21" value="" style="dashed=0;shape=rect;align=right;fillColor=#0973AE;strokeColor=none;fontColor=#FFFFFF;spacingRight=4;spacingTop=1;fontStyle=0;fontSize=13;resizeWidth=1;" parent="aZ1q8WLzLSEbGg7G-zQn-20" vertex="1">
          <mxGeometry width="358" height="24" relative="1" as="geometry" />
        </mxCell>
        <mxCell id="aZ1q8WLzLSEbGg7G-zQn-22" value="" style="dashed=0;shape=rect;strokeColor=none;fillColor=#098DCA;resizeWidth=1;" parent="aZ1q8WLzLSEbGg7G-zQn-20" vertex="1">
          <mxGeometry width="1110" height="126" relative="1" as="geometry">
            <mxPoint y="25" as="offset" />
          </mxGeometry>
        </mxCell>
        <mxCell id="aZ1q8WLzLSEbGg7G-zQn-23" value="" style="dashed=0;shape=mxgraph.gmdl.preferences;strokeColor=none;fillColor=#084560;" parent="aZ1q8WLzLSEbGg7G-zQn-22" vertex="1">
          <mxGeometry width="24" height="16" relative="1" as="geometry">
            <mxPoint x="16" y="20" as="offset" />
          </mxGeometry>
        </mxCell>
        <mxCell id="aZ1q8WLzLSEbGg7G-zQn-24" value="Shawane K. Gunnings&#xa;CN=ABC.123.ORG.US&#xa;gunnins" style="text;fontSize=20;fontColor=#FFFFFF;spacingTop=-3;verticalAlign=middle;resizeWidth=1;align=left;spacingLeft=72;" parent="aZ1q8WLzLSEbGg7G-zQn-22" vertex="1">
          <mxGeometry width="1110" height="24" relative="1" as="geometry">
            <mxPoint x="4" y="69" as="offset" />
          </mxGeometry>
        </mxCell>
        <mxCell id="aZ1q8WLzLSEbGg7G-zQn-25" value="" style="dashed=0;shape=mxgraph.gmdl.search;strokeColor=#084560;fillColor=none;strokeWidth=2;" parent="aZ1q8WLzLSEbGg7G-zQn-22" vertex="1">
          <mxGeometry x="1" width="16" height="16" relative="1" as="geometry">
            <mxPoint x="-73" y="20" as="offset" />
          </mxGeometry>
        </mxCell>
        <mxCell id="aZ1q8WLzLSEbGg7G-zQn-26" value="" style="dashed=0;shape=mxgraph.gmdl.rects;strokeColor=none;fillColor=#084560;" parent="aZ1q8WLzLSEbGg7G-zQn-22" vertex="1">
          <mxGeometry x="1" width="18" height="16" relative="1" as="geometry">
            <mxPoint x="-34" y="20" as="offset" />
          </mxGeometry>
        </mxCell>
        <mxCell id="aZ1q8WLzLSEbGg7G-zQn-27" value="" style="html=1;verticalLabelPosition=bottom;align=center;labelBackgroundColor=#ffffff;verticalAlign=top;strokeWidth=2;strokeColor=#0080F0;shadow=0;dashed=0;shape=mxgraph.ios7.icons.user;fontSize=16;fillColor=#FFFFFF;" parent="aZ1q8WLzLSEbGg7G-zQn-22" vertex="1">
          <mxGeometry x="10" y="48" width="50" height="50" as="geometry" />
        </mxCell>
        <mxCell id="aZ1q8WLzLSEbGg7G-zQn-28" value="" style="dashed=0;shape=rect;strokeColor=none;fillColor=#ffffff;resizeWidth=1;fontSize=16;fontColor=#000000;verticalAlign=middle;align=left;spacingLeft=72;" parent="aZ1q8WLzLSEbGg7G-zQn-20" vertex="1">
          <mxGeometry width="358" height="48" relative="1" as="geometry">
            <mxPoint y="360" as="offset" />
          </mxGeometry>
        </mxCell>
        <mxCell id="aZ1q8WLzLSEbGg7G-zQn-29" value="Records Control Schedule Service" style="dashed=0;shape=rect;strokeColor=none;fillColor=#ffffff;resizeWidth=1;fontSize=16;fontColor=#000000;verticalAlign=middle;align=left;spacingLeft=72;" parent="aZ1q8WLzLSEbGg7G-zQn-20" vertex="1">
          <mxGeometry width="358" height="48" relative="1" as="geometry">
            <mxPoint x="-39" y="213" as="offset" />
          </mxGeometry>
        </mxCell>
        <mxCell id="aZ1q8WLzLSEbGg7G-zQn-30" value="Information Management Approval Service" style="dashed=0;shape=rect;strokeColor=none;fillColor=#ffffff;resizeWidth=1;fontSize=16;fontColor=#000000;verticalAlign=middle;align=left;spacingLeft=72;" parent="aZ1q8WLzLSEbGg7G-zQn-20" vertex="1">
          <mxGeometry width="358" height="48" relative="1" as="geometry">
            <mxPoint x="-39" y="263" as="offset" />
          </mxGeometry>
        </mxCell>
        <mxCell id="aZ1q8WLzLSEbGg7G-zQn-31" value="" style="shape=line;strokeColor=#bbbbbb;strokeWidth=1;opacity=20;resizeWidth=1;" parent="aZ1q8WLzLSEbGg7G-zQn-20" vertex="1">
          <mxGeometry width="358" height="8" relative="1" as="geometry">
            <mxPoint y="467" as="offset" />
          </mxGeometry>
        </mxCell>
        <mxCell id="aZ1q8WLzLSEbGg7G-zQn-32" value="Eva" style="dashed=0;shape=rect;strokeColor=none;fillColor=#ffffff;resizeWidth=1;fontSize=16;fontColor=#000000;verticalAlign=middle;align=left;spacingLeft=72;" parent="aZ1q8WLzLSEbGg7G-zQn-20" vertex="1">
          <mxGeometry width="358" height="48" relative="1" as="geometry">
            <mxPoint x="-39" y="313" as="offset" />
          </mxGeometry>
        </mxCell>
        <mxCell id="aZ1q8WLzLSEbGg7G-zQn-33" value="Records Management Metadata Service" style="dashed=0;shape=rect;strokeColor=none;fillColor=#ffffff;resizeWidth=1;fontSize=16;fontColor=#000000;verticalAlign=middle;align=left;spacingLeft=72;" parent="aZ1q8WLzLSEbGg7G-zQn-20" vertex="1">
          <mxGeometry width="358" height="48" relative="1" as="geometry">
            <mxPoint x="-39" y="363" as="offset" />
          </mxGeometry>
        </mxCell>
        <mxCell id="aZ1q8WLzLSEbGg7G-zQn-34" value="" style="dashed=0;shape=rect;strokeColor=none;fillColor=#000000;resizeWidth=1;" parent="aZ1q8WLzLSEbGg7G-zQn-20" vertex="1">
          <mxGeometry y="1" width="358" height="48" relative="1" as="geometry">
            <mxPoint y="-48" as="offset" />
          </mxGeometry>
        </mxCell>
        <mxCell id="aZ1q8WLzLSEbGg7G-zQn-35" value="Notifications" style="html=1;shadow=0;dashed=0;shape=mxgraph.bootstrap.tabTop;fillColor=#ffffff;rSize=5;perimeter=none;whiteSpace=wrap;resizeWidth=1;align=center;spacing=20;fontSize=16;fontColor=#4B5259;strokeColor=#808080;" parent="1" vertex="1">
          <mxGeometry x="1811" y="145" width="100" height="40" as="geometry" />
        </mxCell>
        <mxCell id="aZ1q8WLzLSEbGg7G-zQn-36" value="Appearance" style="strokeColor=none;fillColor=none;rSize=5;perimeter=none;whiteSpace=wrap;resizeWidth=1;align=center;spacing=20;fontSize=16;fontColor=#0085FC;" parent="1" vertex="1">
          <mxGeometry x="1912" y="145" width="105" height="40" as="geometry" />
        </mxCell>
        <mxCell id="aZ1q8WLzLSEbGg7G-zQn-37" value="Search" style="strokeColor=none;fillColor=none;rSize=5;perimeter=none;whiteSpace=wrap;resizeWidth=1;align=center;spacing=20;fontSize=16;fontColor=#0085FC;" parent="1" vertex="1">
          <mxGeometry x="1981" y="145" width="165" height="40" as="geometry" />
        </mxCell>
        <mxCell id="aZ1q8WLzLSEbGg7G-zQn-38" value="Security" style="strokeColor=none;fillColor=none;rSize=5;perimeter=none;whiteSpace=wrap;resizeWidth=1;align=center;spacing=20;fontSize=16;fontColor=#0085FC;fontColor=#4B5259;" parent="1" vertex="1">
          <mxGeometry x="2036" y="145" width="230" height="40" as="geometry" />
        </mxCell>
        <mxCell id="aZ1q8WLzLSEbGg7G-zQn-39" value="" style="shape=line;strokeColor=#dddddd;fillColor=#098DCA;fontSize=19;align=left;" parent="1" vertex="1">
          <mxGeometry x="1891" y="180" width="700" height="25" as="geometry" />
        </mxCell>
        <mxCell id="aZ1q8WLzLSEbGg7G-zQn-40" value="" style="dashed=0;shape=rect;align=right;fillColor=#0973AE;strokeColor=none;fontColor=#FFFFFF;spacingRight=4;spacingTop=1;fontStyle=0;fontSize=13;resizeWidth=1;" parent="1" vertex="1">
          <mxGeometry x="1799" y="-15" width="753" height="24" as="geometry" />
        </mxCell>
      </root>
    </mxGraphModel>
  </diagram>
  <diagram id="Ci-KUppHpWli5AUrjNx9" name="Architecture">
    <mxGraphModel dx="1422" dy="867" grid="1" gridSize="10" guides="1" tooltips="1" connect="1" arrows="1" fold="1" page="1" pageScale="1" pageWidth="850" pageHeight="1100" math="0" shadow="0">
      <root>
        <mxCell id="VY8nb7vk4mJv3gRdGADC-0" />
        <mxCell id="VY8nb7vk4mJv3gRdGADC-1" parent="VY8nb7vk4mJv3gRdGADC-0" />
        <mxCell id="qGgDk5zAEnWU75O2WU7B-2" style="edgeStyle=orthogonalEdgeStyle;orthogonalLoop=1;jettySize=auto;html=1;exitX=0.5;exitY=1;exitDx=0;exitDy=0;entryX=0.5;entryY=0;entryDx=0;entryDy=0;entryPerimeter=0;" parent="VY8nb7vk4mJv3gRdGADC-1" source="qGgDk5zAEnWU75O2WU7B-0" target="qGgDk5zAEnWU75O2WU7B-1" edge="1">
          <mxGeometry relative="1" as="geometry" />
        </mxCell>
        <mxCell id="qGgDk5zAEnWU75O2WU7B-0" value="User Preferences Service" style="whiteSpace=wrap;html=1;rounded=1;" parent="VY8nb7vk4mJv3gRdGADC-1" vertex="1">
          <mxGeometry x="360" y="360" width="120" height="60" as="geometry" />
        </mxCell>
        <mxCell id="qGgDk5zAEnWU75O2WU7B-1" value="Data Store" style="shape=cylinder3;whiteSpace=wrap;html=1;boundedLbl=1;backgroundOutline=1;size=15;rounded=1;" parent="VY8nb7vk4mJv3gRdGADC-1" vertex="1">
          <mxGeometry x="377.5" y="470" width="85" height="80" as="geometry" />
        </mxCell>
        <mxCell id="qGgDk5zAEnWU75O2WU7B-3" value="Preferences&lt;br&gt;Ref. Table" style="shape=cylinder3;whiteSpace=wrap;html=1;boundedLbl=1;backgroundOutline=1;size=15;rounded=1;" parent="VY8nb7vk4mJv3gRdGADC-1" vertex="1">
          <mxGeometry x="425" y="530" width="80" height="80" as="geometry" />
        </mxCell>
        <mxCell id="LrxhOTZgHoH9DRN8pekN-0" style="edgeStyle=orthogonalEdgeStyle;orthogonalLoop=1;jettySize=auto;html=1;exitX=0.5;exitY=1;exitDx=0;exitDy=0;entryX=0.5;entryY=0;entryDx=0;entryDy=0;" parent="VY8nb7vk4mJv3gRdGADC-1" source="vqTy2em8RQt9_1sOaonX-0" target="qGgDk5zAEnWU75O2WU7B-0" edge="1">
          <mxGeometry relative="1" as="geometry" />
        </mxCell>
        <mxCell id="vqTy2em8RQt9_1sOaonX-0" value="User from EVA" style="whiteSpace=wrap;html=1;rounded=1;" parent="VY8nb7vk4mJv3gRdGADC-1" vertex="1">
          <mxGeometry x="110" y="130" width="120" height="60" as="geometry" />
        </mxCell>
        <mxCell id="LrxhOTZgHoH9DRN8pekN-1" style="edgeStyle=orthogonalEdgeStyle;orthogonalLoop=1;jettySize=auto;html=1;exitX=0.5;exitY=1;exitDx=0;exitDy=0;entryX=0.5;entryY=0;entryDx=0;entryDy=0;" parent="VY8nb7vk4mJv3gRdGADC-1" source="vqTy2em8RQt9_1sOaonX-1" target="qGgDk5zAEnWU75O2WU7B-0" edge="1">
          <mxGeometry relative="1" as="geometry" />
        </mxCell>
        <mxCell id="vqTy2em8RQt9_1sOaonX-1" value="User from iServices" style="whiteSpace=wrap;html=1;rounded=1;" parent="VY8nb7vk4mJv3gRdGADC-1" vertex="1">
          <mxGeometry x="270" y="130" width="120" height="60" as="geometry" />
        </mxCell>
        <mxCell id="LrxhOTZgHoH9DRN8pekN-2" style="edgeStyle=orthogonalEdgeStyle;orthogonalLoop=1;jettySize=auto;html=1;exitX=0.5;exitY=1;exitDx=0;exitDy=0;" parent="VY8nb7vk4mJv3gRdGADC-1" source="vqTy2em8RQt9_1sOaonX-2" edge="1">
          <mxGeometry relative="1" as="geometry">
            <mxPoint x="420" y="360" as="targetPoint" />
          </mxGeometry>
        </mxCell>
        <mxCell id="vqTy2em8RQt9_1sOaonX-2" value="User from IMAP" style="whiteSpace=wrap;html=1;rounded=1;" parent="VY8nb7vk4mJv3gRdGADC-1" vertex="1">
          <mxGeometry x="430" y="130" width="120" height="60" as="geometry" />
        </mxCell>
        <mxCell id="LrxhOTZgHoH9DRN8pekN-3" style="edgeStyle=orthogonalEdgeStyle;orthogonalLoop=1;jettySize=auto;html=1;exitX=0.5;exitY=1;exitDx=0;exitDy=0;entryX=0.5;entryY=0;entryDx=0;entryDy=0;" parent="VY8nb7vk4mJv3gRdGADC-1" source="vqTy2em8RQt9_1sOaonX-3" target="qGgDk5zAEnWU75O2WU7B-0" edge="1">
          <mxGeometry relative="1" as="geometry" />
        </mxCell>
        <mxCell id="vqTy2em8RQt9_1sOaonX-3" value="User from System XYZ" style="whiteSpace=wrap;html=1;rounded=1;" parent="VY8nb7vk4mJv3gRdGADC-1" vertex="1">
          <mxGeometry x="590" y="130" width="120" height="60" as="geometry" />
        </mxCell>
        <mxCell id="vqTy2em8RQt9_1sOaonX-4" value="" style="endArrow=none;dashed=1;html=1;dashPattern=1 3;strokeWidth=2;" parent="VY8nb7vk4mJv3gRdGADC-1" edge="1">
          <mxGeometry width="50" height="50" relative="1" as="geometry">
            <mxPoint x="750" y="159.5" as="sourcePoint" />
            <mxPoint x="770" y="159.5" as="targetPoint" />
            <Array as="points">
              <mxPoint x="750" y="159.5" />
            </Array>
          </mxGeometry>
        </mxCell>
        <mxCell id="LrxhOTZgHoH9DRN8pekN-4" value="Actor" style="shape=umlActor;verticalLabelPosition=bottom;verticalAlign=top;html=1;outlineConnect=0;rounded=1;" parent="VY8nb7vk4mJv3gRdGADC-1" vertex="1">
          <mxGeometry x="155" y="50" width="30" height="60" as="geometry" />
        </mxCell>
        <mxCell id="LrxhOTZgHoH9DRN8pekN-5" value="Actor" style="shape=umlActor;verticalLabelPosition=bottom;verticalAlign=top;html=1;outlineConnect=0;rounded=1;" parent="VY8nb7vk4mJv3gRdGADC-1" vertex="1">
          <mxGeometry x="315" y="50" width="30" height="60" as="geometry" />
        </mxCell>
        <mxCell id="LrxhOTZgHoH9DRN8pekN-6" value="Actor" style="shape=umlActor;verticalLabelPosition=bottom;verticalAlign=top;html=1;outlineConnect=0;rounded=1;" parent="VY8nb7vk4mJv3gRdGADC-1" vertex="1">
          <mxGeometry x="475" y="50" width="30" height="60" as="geometry" />
        </mxCell>
        <mxCell id="LrxhOTZgHoH9DRN8pekN-7" value="Actor" style="shape=umlActor;verticalLabelPosition=bottom;verticalAlign=top;html=1;outlineConnect=0;rounded=1;" parent="VY8nb7vk4mJv3gRdGADC-1" vertex="1">
          <mxGeometry x="635" y="50" width="30" height="60" as="geometry" />
        </mxCell>
      </root>
    </mxGraphModel>
  </diagram>
  <diagram id="c-pq-P9C3NjCLbPgYxZJ" name="UI">
    <mxGraphModel dx="1822" dy="1667" grid="0" gridSize="10" guides="1" tooltips="1" connect="1" arrows="1" fold="1" page="0" pageScale="1" pageWidth="850" pageHeight="1100" math="0" shadow="0">
      <root>
        <mxCell id="x1KOT9eZgWGOnSstURv7-0" />
        <mxCell id="x1KOT9eZgWGOnSstURv7-1" parent="x1KOT9eZgWGOnSstURv7-0" />
        <mxCell id="x1KOT9eZgWGOnSstURv7-20" value="" style="dashed=0;shape=rect;align=right;strokeColor=none;fontColor=#FFFFFF;spacingRight=4;spacingTop=1;fontStyle=0;fontSize=13;resizeWidth=1;fillColor=#0288D1;" parent="x1KOT9eZgWGOnSstURv7-1" vertex="1">
          <mxGeometry x="348" y="-427" width="948" height="24" as="geometry" />
        </mxCell>
        <mxCell id="PmxasoBRtZljh9Jv_qV9-0" value="Search" style="text;html=1;strokeColor=none;fillColor=none;align=center;verticalAlign=middle;whiteSpace=wrap;rounded=0;fontFamily=Helvetica;fontSize=21;" parent="x1KOT9eZgWGOnSstURv7-1" vertex="1">
          <mxGeometry x="615" y="1492" width="40" height="20" as="geometry" />
        </mxCell>
        <mxCell id="PmxasoBRtZljh9Jv_qV9-1" value="Appearance&amp;nbsp;" style="text;html=1;strokeColor=none;fillColor=none;align=center;verticalAlign=middle;whiteSpace=wrap;rounded=0;fontFamily=Helvetica;fontSize=21;fontStyle=1;fontColor=#0288D1;" parent="x1KOT9eZgWGOnSstURv7-1" vertex="1">
          <mxGeometry x="457" y="1492" width="40" height="20" as="geometry" />
        </mxCell>
        <mxCell id="PmxasoBRtZljh9Jv_qV9-2" value="Access" style="text;html=1;strokeColor=none;fillColor=none;align=center;verticalAlign=middle;whiteSpace=wrap;rounded=0;fontFamily=Helvetica;fontSize=21;" parent="x1KOT9eZgWGOnSstURv7-1" vertex="1">
          <mxGeometry x="751" y="1492" width="40" height="20" as="geometry" />
        </mxCell>
        <mxCell id="PmxasoBRtZljh9Jv_qV9-3" value="Show only active schedules" style="html=1;shadow=0;dashed=0;shape=mxgraph.atlassian.checkbox_2;strokeColor=none;align=left;verticalAlign=middle;fontStyle=0;fontSize=20;labelPosition=right;verticalLabelPosition=middle;spacingLeft=10;fillColor=#0288D1;" parent="x1KOT9eZgWGOnSstURv7-1" vertex="1">
          <mxGeometry x="411.5" y="1586" width="36" height="34" as="geometry" />
        </mxCell>
        <mxCell id="PmxasoBRtZljh9Jv_qV9-6" value="Save my column order" style="html=1;shadow=0;dashed=0;shape=mxgraph.atlassian.checkbox_2;strokeColor=none;align=left;verticalAlign=middle;fontStyle=0;fontSize=20;labelPosition=right;verticalLabelPosition=middle;spacingLeft=10;fillColor=#0288D1;" parent="x1KOT9eZgWGOnSstURv7-1" vertex="1">
          <mxGeometry x="414.5" y="1655" width="36" height="34" as="geometry" />
        </mxCell>
        <mxCell id="x1KOT9eZgWGOnSstURv7-2" value="" style="shape=rect;fillColor=#ffffff;align=right;labelPosition=left;verticalLabelPosition=middle;verticalAlign=middle;strokeColor=#B3B3B3;" parent="x1KOT9eZgWGOnSstURv7-1" vertex="1">
          <mxGeometry x="-82" y="-427" width="445" height="669" as="geometry" />
        </mxCell>
        <mxCell id="BkGlsNxl47I5mN97nsxy-0" value="" style="rounded=0;whiteSpace=wrap;html=1;fontFamily=Helvetica;fontSize=18;fontColor=#333333;strokeColor=#999999;fillColor=#DEDEDE;" parent="x1KOT9eZgWGOnSstURv7-2" vertex="1">
          <mxGeometry x="12.5" y="178" width="420" height="60" as="geometry" />
        </mxCell>
        <mxCell id="x1KOT9eZgWGOnSstURv7-3" value="" style="dashed=0;shape=rect;align=right;strokeColor=none;fontColor=#FFFFFF;spacingRight=4;spacingTop=1;fontStyle=0;fontSize=13;resizeWidth=1;fillColor=#0288D1;" parent="x1KOT9eZgWGOnSstURv7-2" vertex="1">
          <mxGeometry width="445.0000000000001" height="24" relative="1" as="geometry" />
        </mxCell>
        <mxCell id="x1KOT9eZgWGOnSstURv7-4" value="" style="dashed=0;shape=rect;strokeColor=none;resizeWidth=1;fillColor=#03A9F4;" parent="x1KOT9eZgWGOnSstURv7-2" vertex="1">
          <mxGeometry width="1379.7486033519556" height="126" relative="1" as="geometry">
            <mxPoint y="25" as="offset" />
          </mxGeometry>
        </mxCell>
        <mxCell id="x1KOT9eZgWGOnSstURv7-5" value="Shawane K. Gunnings&#xa;CN=ABC.123.ORG.US&#xa;gunnins" style="text;fontSize=20;fontColor=#FFFFFF;spacingTop=-3;verticalAlign=middle;resizeWidth=1;align=left;spacingLeft=72;" parent="x1KOT9eZgWGOnSstURv7-4" vertex="1">
          <mxGeometry width="1379.7486033519556" height="24" relative="1" as="geometry">
            <mxPoint x="30820" y="165" as="offset" />
          </mxGeometry>
        </mxCell>
        <mxCell id="x1KOT9eZgWGOnSstURv7-6" value="" style="dashed=0;shape=mxgraph.gmdl.search;strokeColor=#084560;fillColor=none;strokeWidth=2;" parent="x1KOT9eZgWGOnSstURv7-4" vertex="1">
          <mxGeometry x="1" width="16" height="16" relative="1" as="geometry">
            <mxPoint x="-73" y="20" as="offset" />
          </mxGeometry>
        </mxCell>
        <mxCell id="x1KOT9eZgWGOnSstURv7-7" value="" style="dashed=0;shape=mxgraph.gmdl.rects;strokeColor=none;fillColor=#084560;" parent="x1KOT9eZgWGOnSstURv7-4" vertex="1">
          <mxGeometry x="1" width="18" height="16" relative="1" as="geometry">
            <mxPoint x="-34" y="20" as="offset" />
          </mxGeometry>
        </mxCell>
        <mxCell id="x1KOT9eZgWGOnSstURv7-8" value="" style="html=1;verticalLabelPosition=bottom;align=center;labelBackgroundColor=#ffffff;verticalAlign=top;strokeWidth=2;shadow=0;dashed=0;shape=mxgraph.ios7.icons.user;fontSize=16;fillColor=#FFFFFF;strokeColor=#098dca;" parent="x1KOT9eZgWGOnSstURv7-4" vertex="1">
          <mxGeometry x="19" y="32" width="57.43" height="55" as="geometry" />
        </mxCell>
        <mxCell id="x1KOT9eZgWGOnSstURv7-9" value="&lt;span style=&quot;background-color: rgb(3 , 169 , 244)&quot;&gt;&lt;b&gt;&lt;span style=&quot;color: rgb(255 , 255 , 255) ; font-family: &amp;#34;helvetica&amp;#34; ; font-size: 20px ; font-style: normal ; letter-spacing: normal ; text-align: left ; text-indent: 0px ; text-transform: none ; word-spacing: 0px ; display: inline ; float: none&quot;&gt;Shawane K. Gunnings&lt;/span&gt;&lt;br style=&quot;padding: 0px ; margin: 0px ; color: rgb(255 , 255 , 255) ; font-family: &amp;#34;helvetica&amp;#34; ; font-size: 20px ; font-style: normal ; letter-spacing: normal ; text-align: left ; text-indent: 0px ; text-transform: none ; word-spacing: 0px&quot;&gt;&lt;/b&gt;&lt;br&gt;&lt;/span&gt;" style="text;whiteSpace=wrap;html=1;" parent="x1KOT9eZgWGOnSstURv7-4" vertex="1">
          <mxGeometry x="91.00340782122908" y="42" width="279.67877094972073" height="65" as="geometry" />
        </mxCell>
        <mxCell id="x1KOT9eZgWGOnSstURv7-10" value="Records Control Schedule Service" style="dashed=0;shape=rect;strokeColor=none;fillColor=#ffffff;resizeWidth=1;fontSize=18;verticalAlign=middle;align=center;spacingLeft=72;labelPosition=center;verticalLabelPosition=middle;fontStyle=0;fontFamily=Helvetica;" parent="x1KOT9eZgWGOnSstURv7-2" vertex="1">
          <mxGeometry width="316.1" height="48" relative="1" as="geometry">
            <mxPoint x="17.15" y="248" as="offset" />
          </mxGeometry>
        </mxCell>
        <mxCell id="x1KOT9eZgWGOnSstURv7-11" value="Information Management Approval Service" style="dashed=0;shape=rect;strokeColor=none;fillColor=#ffffff;resizeWidth=1;fontSize=18;verticalAlign=middle;align=left;spacingLeft=72;fontStyle=0" parent="x1KOT9eZgWGOnSstURv7-2" vertex="1">
          <mxGeometry width="213" height="48" relative="1" as="geometry">
            <mxPoint x="-5.773159728050814e-15" y="324" as="offset" />
          </mxGeometry>
        </mxCell>
        <mxCell id="x1KOT9eZgWGOnSstURv7-12" value="Eva" style="dashed=0;shape=rect;strokeColor=none;fillColor=#ffffff;resizeWidth=1;fontSize=18;verticalAlign=middle;align=left;spacingLeft=72;fontStyle=0" parent="x1KOT9eZgWGOnSstURv7-2" vertex="1">
          <mxGeometry width="377.9753086419754" height="48" relative="1" as="geometry">
            <mxPoint y="399" as="offset" />
          </mxGeometry>
        </mxCell>
        <mxCell id="x1KOT9eZgWGOnSstURv7-13" value="Records Management Metadata Service" style="dashed=0;shape=rect;strokeColor=none;fillColor=#ffffff;resizeWidth=1;fontSize=18;verticalAlign=middle;align=center;spacingLeft=72;fontStyle=0" parent="x1KOT9eZgWGOnSstURv7-2" vertex="1">
          <mxGeometry width="374.8804086538462" height="42" relative="1" as="geometry">
            <mxPoint x="12.15" y="468" as="offset" />
          </mxGeometry>
        </mxCell>
        <mxCell id="x1KOT9eZgWGOnSstURv7-14" value="" style="dashed=0;shape=rect;strokeColor=none;fillColor=#000000;resizeWidth=1;" parent="x1KOT9eZgWGOnSstURv7-2" vertex="1">
          <mxGeometry y="1" width="445.0000000000001" height="48" relative="1" as="geometry">
            <mxPoint y="-48" as="offset" />
          </mxGeometry>
        </mxCell>
        <mxCell id="PmxasoBRtZljh9Jv_qV9-7" value="Global Preferences" style="dashed=0;shape=rect;strokeColor=none;resizeWidth=1;fontSize=18;verticalAlign=middle;align=left;spacingLeft=72;labelPosition=center;verticalLabelPosition=middle;fontStyle=1;fontFamily=Helvetica;fillColor=none;" parent="x1KOT9eZgWGOnSstURv7-2" vertex="1">
          <mxGeometry x="6.000000000000092" y="185" width="316.1" height="48" as="geometry" />
        </mxCell>
        <mxCell id="e2miAZ4wuKYkb5Z96vUY-1" value="" style="html=1;shadow=0;dashed=0;shape=mxgraph.bootstrap.radioButton2;labelPosition=right;verticalLabelPosition=middle;align=left;verticalAlign=middle;gradientColor=#DEDEDE;checked=0;spacing=5;checkedFill=#0085FC;checkedStroke=#ffffff;fontSize=16;fillColor=#FFFFFF;" parent="x1KOT9eZgWGOnSstURv7-1" vertex="1">
          <mxGeometry x="440" y="-114.62" width="10" height="10" as="geometry" />
        </mxCell>
        <mxCell id="e2miAZ4wuKYkb5Z96vUY-2" value="Default" style="text;html=1;strokeColor=none;fillColor=none;align=center;verticalAlign=middle;whiteSpace=wrap;rounded=0;fontSize=14;fontColor=#999999;" parent="x1KOT9eZgWGOnSstURv7-1" vertex="1">
          <mxGeometry x="483" y="-62.870000000000005" width="40" height="20" as="geometry" />
        </mxCell>
        <mxCell id="e2miAZ4wuKYkb5Z96vUY-4" value="" style="shape=rect;fillColor=#ffffff;strokeColor=#eeeeee;shadow=1;aspect=fixed;fontSize=16;align=left;" parent="x1KOT9eZgWGOnSstURv7-1" vertex="1">
          <mxGeometry x="666" y="-142.12" width="41" height="60.5" as="geometry" />
        </mxCell>
        <mxCell id="e2miAZ4wuKYkb5Z96vUY-5" value="" style="shape=rect;fontColor=#ffffff;strokeColor=none;align=center;spacing=0;fontSize=58;verticalAlign=middle;spacingBottom=10;spacingLeft=34;fillColor=#FF8000;" parent="e2miAZ4wuKYkb5Z96vUY-4" vertex="1">
          <mxGeometry width="41" height="12.000000000000002" as="geometry" />
        </mxCell>
        <mxCell id="e2miAZ4wuKYkb5Z96vUY-25" value="" style="shape=rect;fillColor=#ffffff;strokeColor=#eeeeee;shadow=1;aspect=fixed;fontSize=16;align=left;" parent="x1KOT9eZgWGOnSstURv7-1" vertex="1">
          <mxGeometry x="482" y="-139.87" width="41" height="60.5" as="geometry" />
        </mxCell>
        <mxCell id="e2miAZ4wuKYkb5Z96vUY-26" value="" style="shape=rect;fontColor=#ffffff;strokeColor=none;align=center;spacing=0;fontSize=58;verticalAlign=middle;spacingBottom=10;spacingLeft=34;fillColor=#007FFF;" parent="e2miAZ4wuKYkb5Z96vUY-25" vertex="1">
          <mxGeometry width="41" height="12.000000000000002" as="geometry" />
        </mxCell>
        <mxCell id="e2miAZ4wuKYkb5Z96vUY-28" value="" style="html=1;shadow=0;dashed=0;shape=mxgraph.bootstrap.radioButton2;labelPosition=right;verticalLabelPosition=middle;align=left;verticalAlign=middle;gradientColor=#DEDEDE;fillColor=#EDEDED;checked=0;spacing=5;checkedFill=#0085FC;checkedStroke=#ffffff;fontSize=16;" parent="x1KOT9eZgWGOnSstURv7-1" vertex="1">
          <mxGeometry x="629" y="-116.87" width="10" height="10" as="geometry" />
        </mxCell>
        <mxCell id="e2miAZ4wuKYkb5Z96vUY-29" value="" style="html=1;shadow=0;dashed=0;shape=mxgraph.bootstrap.radioButton2;labelPosition=right;verticalLabelPosition=middle;align=left;verticalAlign=middle;gradientColor=#DEDEDE;fillColor=#EDEDED;checked=0;spacing=5;checkedFill=#0085FC;checkedStroke=#ffffff;fontSize=16;" parent="x1KOT9eZgWGOnSstURv7-1" vertex="1">
          <mxGeometry x="801" y="-116.37" width="10" height="10" as="geometry" />
        </mxCell>
        <mxCell id="e2miAZ4wuKYkb5Z96vUY-30" value="Orange" style="text;html=1;strokeColor=none;fillColor=none;align=center;verticalAlign=middle;whiteSpace=wrap;rounded=0;fontSize=14;fontColor=#999999;" parent="x1KOT9eZgWGOnSstURv7-1" vertex="1">
          <mxGeometry x="667" y="-62.870000000000005" width="40" height="20" as="geometry" />
        </mxCell>
        <mxCell id="e2miAZ4wuKYkb5Z96vUY-31" value="Dark" style="text;html=1;strokeColor=none;fillColor=none;align=center;verticalAlign=middle;whiteSpace=wrap;rounded=0;fontSize=14;fontColor=#999999;" parent="x1KOT9eZgWGOnSstURv7-1" vertex="1">
          <mxGeometry x="837" y="-62.370000000000005" width="40" height="20" as="geometry" />
        </mxCell>
        <mxCell id="KUobusZul0nybTjjoVEI-0" value="r" style="rounded=0;whiteSpace=wrap;html=1;fontFamily=Helvetica;fontSize=20;fontColor=#0288D1;fillColor=#0288D1;strokeColor=#0288D1;" parent="x1KOT9eZgWGOnSstURv7-1" vertex="1">
          <mxGeometry x="392" y="213" width="188.5" height="22" as="geometry" />
        </mxCell>
        <mxCell id="KUobusZul0nybTjjoVEI-1" value="&lt;font style=&quot;font-size: 16px&quot;&gt;Reset to Default&lt;/font&gt;" style="text;html=1;strokeColor=none;fillColor=none;align=center;verticalAlign=middle;whiteSpace=wrap;rounded=0;fontFamily=Helvetica;fontSize=20;fontColor=#FFFFFF;" parent="x1KOT9eZgWGOnSstURv7-1" vertex="1">
          <mxGeometry x="387" y="214" width="181" height="20" as="geometry" />
        </mxCell>
        <mxCell id="KUobusZul0nybTjjoVEI-46" value="" style="shape=rect;fillColor=#ffffff;align=right;labelPosition=left;verticalLabelPosition=middle;verticalAlign=middle;strokeColor=#B3B3B3;" parent="x1KOT9eZgWGOnSstURv7-1" vertex="1">
          <mxGeometry x="-107" y="1290.5" width="445" height="669" as="geometry" />
        </mxCell>
        <mxCell id="8StwPbALzq3JCibDb2yT-0" value="" style="rounded=0;whiteSpace=wrap;html=1;fontFamily=Helvetica;fontSize=18;fontColor=#333333;strokeColor=#999999;fillColor=#DEDEDE;" parent="KUobusZul0nybTjjoVEI-46" vertex="1">
          <mxGeometry x="12.5" y="245.5" width="420" height="60" as="geometry" />
        </mxCell>
        <mxCell id="KUobusZul0nybTjjoVEI-48" value="" style="dashed=0;shape=rect;align=right;strokeColor=none;fontColor=#FFFFFF;spacingRight=4;spacingTop=1;fontStyle=0;fontSize=13;resizeWidth=1;fillColor=#0288D1;" parent="KUobusZul0nybTjjoVEI-46" vertex="1">
          <mxGeometry width="445.0000000000001" height="24" relative="1" as="geometry" />
        </mxCell>
        <mxCell id="KUobusZul0nybTjjoVEI-49" value="" style="dashed=0;shape=rect;strokeColor=none;resizeWidth=1;fillColor=#03A9F4;" parent="KUobusZul0nybTjjoVEI-46" vertex="1">
          <mxGeometry width="1379.7486033519556" height="126" relative="1" as="geometry">
            <mxPoint y="25" as="offset" />
          </mxGeometry>
        </mxCell>
        <mxCell id="KUobusZul0nybTjjoVEI-50" value="Shawane K. Gunnings&#xa;CN=ABC.123.ORG.US&#xa;gunnins" style="text;fontSize=20;fontColor=#FFFFFF;spacingTop=-3;verticalAlign=middle;resizeWidth=1;align=left;spacingLeft=72;" parent="KUobusZul0nybTjjoVEI-49" vertex="1">
          <mxGeometry width="1379.7486033519556" height="24" relative="1" as="geometry">
            <mxPoint x="30820" y="165" as="offset" />
          </mxGeometry>
        </mxCell>
        <mxCell id="KUobusZul0nybTjjoVEI-51" value="" style="dashed=0;shape=mxgraph.gmdl.search;strokeColor=#084560;fillColor=none;strokeWidth=2;" parent="KUobusZul0nybTjjoVEI-49" vertex="1">
          <mxGeometry x="1" width="16" height="16" relative="1" as="geometry">
            <mxPoint x="-73" y="20" as="offset" />
          </mxGeometry>
        </mxCell>
        <mxCell id="KUobusZul0nybTjjoVEI-52" value="" style="dashed=0;shape=mxgraph.gmdl.rects;strokeColor=none;fillColor=#084560;" parent="KUobusZul0nybTjjoVEI-49" vertex="1">
          <mxGeometry x="1" width="18" height="16" relative="1" as="geometry">
            <mxPoint x="-34" y="20" as="offset" />
          </mxGeometry>
        </mxCell>
        <mxCell id="KUobusZul0nybTjjoVEI-53" value="" style="html=1;verticalLabelPosition=bottom;align=center;labelBackgroundColor=#ffffff;verticalAlign=top;strokeWidth=2;shadow=0;dashed=0;shape=mxgraph.ios7.icons.user;fontSize=16;fillColor=#FFFFFF;strokeColor=#098dca;" parent="KUobusZul0nybTjjoVEI-49" vertex="1">
          <mxGeometry x="19" y="32" width="57.43" height="55" as="geometry" />
        </mxCell>
        <mxCell id="KUobusZul0nybTjjoVEI-54" value="&lt;span style=&quot;background-color: rgb(3 , 169 , 244)&quot;&gt;&lt;b&gt;&lt;span style=&quot;color: rgb(255 , 255 , 255) ; font-family: &amp;#34;helvetica&amp;#34; ; font-size: 20px ; font-style: normal ; letter-spacing: normal ; text-align: left ; text-indent: 0px ; text-transform: none ; word-spacing: 0px ; display: inline ; float: none&quot;&gt;Shawane K. Gunnings&lt;/span&gt;&lt;br style=&quot;padding: 0px ; margin: 0px ; color: rgb(255 , 255 , 255) ; font-family: &amp;#34;helvetica&amp;#34; ; font-size: 20px ; font-style: normal ; letter-spacing: normal ; text-align: left ; text-indent: 0px ; text-transform: none ; word-spacing: 0px&quot;&gt;&lt;/b&gt;&lt;br&gt;&lt;/span&gt;" style="text;whiteSpace=wrap;html=1;" parent="KUobusZul0nybTjjoVEI-49" vertex="1">
          <mxGeometry x="91.00340782122908" y="42" width="279.67877094972073" height="65" as="geometry" />
        </mxCell>
        <mxCell id="KUobusZul0nybTjjoVEI-55" value="Records Control Schedule Service" style="dashed=0;shape=rect;strokeColor=none;resizeWidth=1;fontSize=18;verticalAlign=middle;align=center;spacingLeft=72;labelPosition=center;verticalLabelPosition=middle;fontStyle=1;fontFamily=Helvetica;fillColor=none;" parent="KUobusZul0nybTjjoVEI-46" vertex="1">
          <mxGeometry width="316.1" height="48" relative="1" as="geometry">
            <mxPoint x="17.15" y="248" as="offset" />
          </mxGeometry>
        </mxCell>
        <mxCell id="KUobusZul0nybTjjoVEI-56" value="Information Management Approval Service" style="dashed=0;shape=rect;strokeColor=none;fillColor=#ffffff;resizeWidth=1;fontSize=18;verticalAlign=middle;align=left;spacingLeft=72;fontStyle=0" parent="KUobusZul0nybTjjoVEI-46" vertex="1">
          <mxGeometry width="213" height="48" relative="1" as="geometry">
            <mxPoint x="-5.773159728050814e-15" y="324" as="offset" />
          </mxGeometry>
        </mxCell>
        <mxCell id="KUobusZul0nybTjjoVEI-57" value="Eva" style="dashed=0;shape=rect;strokeColor=none;fillColor=#ffffff;resizeWidth=1;fontSize=18;verticalAlign=middle;align=left;spacingLeft=72;fontStyle=0" parent="KUobusZul0nybTjjoVEI-46" vertex="1">
          <mxGeometry width="377.9753086419754" height="48" relative="1" as="geometry">
            <mxPoint y="399" as="offset" />
          </mxGeometry>
        </mxCell>
        <mxCell id="KUobusZul0nybTjjoVEI-58" value="Records Management Metadata Service" style="dashed=0;shape=rect;strokeColor=none;fillColor=#ffffff;resizeWidth=1;fontSize=18;verticalAlign=middle;align=center;spacingLeft=72;fontStyle=0" parent="KUobusZul0nybTjjoVEI-46" vertex="1">
          <mxGeometry width="374.8804086538462" height="42" relative="1" as="geometry">
            <mxPoint x="12.15" y="468" as="offset" />
          </mxGeometry>
        </mxCell>
        <mxCell id="KUobusZul0nybTjjoVEI-59" value="" style="dashed=0;shape=rect;strokeColor=none;fillColor=#000000;resizeWidth=1;" parent="KUobusZul0nybTjjoVEI-46" vertex="1">
          <mxGeometry y="1" width="445.0000000000001" height="48" relative="1" as="geometry">
            <mxPoint y="-48" as="offset" />
          </mxGeometry>
        </mxCell>
        <mxCell id="KUobusZul0nybTjjoVEI-60" value="Global Preferences" style="dashed=0;shape=rect;strokeColor=none;resizeWidth=1;fontSize=18;verticalAlign=middle;align=left;spacingLeft=72;labelPosition=center;verticalLabelPosition=middle;fontStyle=0;fontFamily=Helvetica;fillColor=none;" parent="KUobusZul0nybTjjoVEI-46" vertex="1">
          <mxGeometry x="6.000000000000092" y="185" width="316.1" height="48" as="geometry" />
        </mxCell>
        <mxCell id="KUobusZul0nybTjjoVEI-74" value="r" style="rounded=0;whiteSpace=wrap;html=1;fontFamily=Helvetica;fontSize=20;fontColor=#0288D1;fillColor=#0288D1;strokeColor=#0288D1;" parent="x1KOT9eZgWGOnSstURv7-1" vertex="1">
          <mxGeometry x="404.25" y="1874" width="188.5" height="22" as="geometry" />
        </mxCell>
        <mxCell id="KUobusZul0nybTjjoVEI-75" value="&lt;font style=&quot;font-size: 16px&quot;&gt;Reset to Default&lt;/font&gt;" style="text;html=1;strokeColor=none;fillColor=none;align=center;verticalAlign=middle;whiteSpace=wrap;rounded=0;fontFamily=Helvetica;fontSize=20;fontColor=#FFFFFF;" parent="x1KOT9eZgWGOnSstURv7-1" vertex="1">
          <mxGeometry x="402" y="1874" width="181" height="20" as="geometry" />
        </mxCell>
        <mxCell id="KUobusZul0nybTjjoVEI-86" value="" style="dashed=0;shape=rect;align=right;strokeColor=none;fontColor=#FFFFFF;spacingRight=4;spacingTop=1;fontStyle=0;fontSize=13;resizeWidth=1;fillColor=#0288D1;" parent="x1KOT9eZgWGOnSstURv7-1" vertex="1">
          <mxGeometry x="338" y="1290.5" width="933" height="24" as="geometry" />
        </mxCell>
        <mxCell id="edfCbJtgvnj_4nGYrU3Y-0" value="" style="endArrow=none;html=1;fontFamily=Helvetica;fontSize=20;strokeWidth=1;strokeColor=#B3B3B3;" parent="x1KOT9eZgWGOnSstURv7-1" edge="1">
          <mxGeometry width="50" height="50" relative="1" as="geometry">
            <mxPoint x="360" y="1543" as="sourcePoint" />
            <mxPoint x="1266" y="1543" as="targetPoint" />
          </mxGeometry>
        </mxCell>
        <mxCell id="zZ9W4G6MZK1nkkq09LC7-5" value="" style="shape=rect;fillColor=#ffffff;align=right;labelPosition=left;verticalLabelPosition=middle;verticalAlign=middle;strokeColor=#B3B3B3;" parent="x1KOT9eZgWGOnSstURv7-1" vertex="1">
          <mxGeometry x="-111" y="2024" width="445" height="669" as="geometry" />
        </mxCell>
        <mxCell id="zZ9W4G6MZK1nkkq09LC7-6" value="" style="rounded=0;whiteSpace=wrap;html=1;fontFamily=Helvetica;fontSize=18;fontColor=#333333;strokeColor=#999999;fillColor=#DEDEDE;" parent="zZ9W4G6MZK1nkkq09LC7-5" vertex="1">
          <mxGeometry x="12.5" y="245.5" width="420" height="60" as="geometry" />
        </mxCell>
        <mxCell id="zZ9W4G6MZK1nkkq09LC7-7" value="" style="dashed=0;shape=rect;align=right;strokeColor=none;fontColor=#FFFFFF;spacingRight=4;spacingTop=1;fontStyle=0;fontSize=13;resizeWidth=1;fillColor=#0288D1;" parent="zZ9W4G6MZK1nkkq09LC7-5" vertex="1">
          <mxGeometry width="445.0000000000001" height="24" relative="1" as="geometry" />
        </mxCell>
        <mxCell id="zZ9W4G6MZK1nkkq09LC7-8" value="" style="dashed=0;shape=rect;strokeColor=none;resizeWidth=1;fillColor=#03A9F4;" parent="zZ9W4G6MZK1nkkq09LC7-5" vertex="1">
          <mxGeometry width="1379.7486033519556" height="126" relative="1" as="geometry">
            <mxPoint y="25" as="offset" />
          </mxGeometry>
        </mxCell>
        <mxCell id="zZ9W4G6MZK1nkkq09LC7-9" value="Shawane K. Gunnings&#xa;CN=ABC.123.ORG.US&#xa;gunnins" style="text;fontSize=20;fontColor=#FFFFFF;spacingTop=-3;verticalAlign=middle;resizeWidth=1;align=left;spacingLeft=72;" parent="zZ9W4G6MZK1nkkq09LC7-8" vertex="1">
          <mxGeometry width="1379.7486033519556" height="24" relative="1" as="geometry">
            <mxPoint x="30820" y="165" as="offset" />
          </mxGeometry>
        </mxCell>
        <mxCell id="zZ9W4G6MZK1nkkq09LC7-10" value="" style="dashed=0;shape=mxgraph.gmdl.search;strokeColor=#084560;fillColor=none;strokeWidth=2;" parent="zZ9W4G6MZK1nkkq09LC7-8" vertex="1">
          <mxGeometry x="1" width="16" height="16" relative="1" as="geometry">
            <mxPoint x="-73" y="20" as="offset" />
          </mxGeometry>
        </mxCell>
        <mxCell id="zZ9W4G6MZK1nkkq09LC7-11" value="" style="dashed=0;shape=mxgraph.gmdl.rects;strokeColor=none;fillColor=#084560;" parent="zZ9W4G6MZK1nkkq09LC7-8" vertex="1">
          <mxGeometry x="1" width="18" height="16" relative="1" as="geometry">
            <mxPoint x="-34" y="20" as="offset" />
          </mxGeometry>
        </mxCell>
        <mxCell id="zZ9W4G6MZK1nkkq09LC7-12" value="" style="html=1;verticalLabelPosition=bottom;align=center;labelBackgroundColor=#ffffff;verticalAlign=top;strokeWidth=2;shadow=0;dashed=0;shape=mxgraph.ios7.icons.user;fontSize=16;fillColor=#FFFFFF;strokeColor=#098dca;" parent="zZ9W4G6MZK1nkkq09LC7-8" vertex="1">
          <mxGeometry x="19" y="32" width="57.43" height="55" as="geometry" />
        </mxCell>
        <mxCell id="zZ9W4G6MZK1nkkq09LC7-13" value="&lt;span style=&quot;background-color: rgb(3 , 169 , 244)&quot;&gt;&lt;b&gt;&lt;span style=&quot;color: rgb(255 , 255 , 255) ; font-family: &amp;#34;helvetica&amp;#34; ; font-size: 20px ; font-style: normal ; letter-spacing: normal ; text-align: left ; text-indent: 0px ; text-transform: none ; word-spacing: 0px ; display: inline ; float: none&quot;&gt;Shawane K. Gunnings&lt;/span&gt;&lt;br style=&quot;padding: 0px ; margin: 0px ; color: rgb(255 , 255 , 255) ; font-family: &amp;#34;helvetica&amp;#34; ; font-size: 20px ; font-style: normal ; letter-spacing: normal ; text-align: left ; text-indent: 0px ; text-transform: none ; word-spacing: 0px&quot;&gt;&lt;/b&gt;&lt;br&gt;&lt;/span&gt;" style="text;whiteSpace=wrap;html=1;" parent="zZ9W4G6MZK1nkkq09LC7-8" vertex="1">
          <mxGeometry x="91.00340782122908" y="42" width="279.67877094972073" height="65" as="geometry" />
        </mxCell>
        <mxCell id="zZ9W4G6MZK1nkkq09LC7-14" value="Records Control Schedule Service" style="dashed=0;shape=rect;strokeColor=none;resizeWidth=1;fontSize=18;verticalAlign=middle;align=center;spacingLeft=72;labelPosition=center;verticalLabelPosition=middle;fontStyle=1;fontFamily=Helvetica;fillColor=none;" parent="zZ9W4G6MZK1nkkq09LC7-5" vertex="1">
          <mxGeometry width="316.1" height="48" relative="1" as="geometry">
            <mxPoint x="17.15" y="248" as="offset" />
          </mxGeometry>
        </mxCell>
        <mxCell id="zZ9W4G6MZK1nkkq09LC7-15" value="Information Management Approval Service" style="dashed=0;shape=rect;strokeColor=none;fillColor=#ffffff;resizeWidth=1;fontSize=18;verticalAlign=middle;align=left;spacingLeft=72;fontStyle=0" parent="zZ9W4G6MZK1nkkq09LC7-5" vertex="1">
          <mxGeometry width="213" height="48" relative="1" as="geometry">
            <mxPoint x="-5.773159728050814e-15" y="324" as="offset" />
          </mxGeometry>
        </mxCell>
        <mxCell id="zZ9W4G6MZK1nkkq09LC7-16" value="Eva" style="dashed=0;shape=rect;strokeColor=none;fillColor=#ffffff;resizeWidth=1;fontSize=18;verticalAlign=middle;align=left;spacingLeft=72;fontStyle=0" parent="zZ9W4G6MZK1nkkq09LC7-5" vertex="1">
          <mxGeometry width="377.9753086419754" height="48" relative="1" as="geometry">
            <mxPoint y="399" as="offset" />
          </mxGeometry>
        </mxCell>
        <mxCell id="zZ9W4G6MZK1nkkq09LC7-17" value="Records Management Metadata Service" style="dashed=0;shape=rect;strokeColor=none;fillColor=#ffffff;resizeWidth=1;fontSize=18;verticalAlign=middle;align=center;spacingLeft=72;fontStyle=0" parent="zZ9W4G6MZK1nkkq09LC7-5" vertex="1">
          <mxGeometry width="374.8804086538462" height="42" relative="1" as="geometry">
            <mxPoint x="12.15" y="468" as="offset" />
          </mxGeometry>
        </mxCell>
        <mxCell id="zZ9W4G6MZK1nkkq09LC7-18" value="" style="dashed=0;shape=rect;strokeColor=none;fillColor=#000000;resizeWidth=1;" parent="zZ9W4G6MZK1nkkq09LC7-5" vertex="1">
          <mxGeometry y="1" width="445.0000000000001" height="48" relative="1" as="geometry">
            <mxPoint y="-48" as="offset" />
          </mxGeometry>
        </mxCell>
        <mxCell id="zZ9W4G6MZK1nkkq09LC7-19" value="Global Preferences" style="dashed=0;shape=rect;strokeColor=none;resizeWidth=1;fontSize=18;verticalAlign=middle;align=left;spacingLeft=72;labelPosition=center;verticalLabelPosition=middle;fontStyle=0;fontFamily=Helvetica;fillColor=none;" parent="zZ9W4G6MZK1nkkq09LC7-5" vertex="1">
          <mxGeometry x="6.000000000000092" y="185" width="316.1" height="48" as="geometry" />
        </mxCell>
        <mxCell id="zZ9W4G6MZK1nkkq09LC7-20" value="r" style="rounded=0;whiteSpace=wrap;html=1;fontFamily=Helvetica;fontSize=20;fontColor=#0288D1;fillColor=#0288D1;strokeColor=#0288D1;" parent="x1KOT9eZgWGOnSstURv7-1" vertex="1">
          <mxGeometry x="400.25" y="2607.5" width="188.5" height="22" as="geometry" />
        </mxCell>
        <mxCell id="zZ9W4G6MZK1nkkq09LC7-21" value="&lt;font style=&quot;font-size: 16px&quot;&gt;Reset to Default&lt;/font&gt;" style="text;html=1;strokeColor=none;fillColor=none;align=center;verticalAlign=middle;whiteSpace=wrap;rounded=0;fontFamily=Helvetica;fontSize=20;fontColor=#FFFFFF;" parent="x1KOT9eZgWGOnSstURv7-1" vertex="1">
          <mxGeometry x="398" y="2607.5" width="181" height="20" as="geometry" />
        </mxCell>
        <mxCell id="zZ9W4G6MZK1nkkq09LC7-22" value="" style="dashed=0;shape=rect;align=right;strokeColor=none;fontColor=#FFFFFF;spacingRight=4;spacingTop=1;fontStyle=0;fontSize=13;resizeWidth=1;fillColor=#0288D1;" parent="x1KOT9eZgWGOnSstURv7-1" vertex="1">
          <mxGeometry x="334" y="2024" width="933" height="24" as="geometry" />
        </mxCell>
        <mxCell id="5UAvqiljonKKOVuh4oHW-0" value="Search" style="text;html=1;strokeColor=none;fillColor=none;align=center;verticalAlign=middle;whiteSpace=wrap;rounded=0;fontFamily=Helvetica;fontSize=21;fontColor=#0288D1;fontStyle=1;" parent="x1KOT9eZgWGOnSstURv7-1" vertex="1">
          <mxGeometry x="592" y="2224" width="40" height="20" as="geometry" />
        </mxCell>
        <mxCell id="5UAvqiljonKKOVuh4oHW-1" value="Appearance&amp;nbsp;" style="text;html=1;strokeColor=none;fillColor=none;align=center;verticalAlign=middle;whiteSpace=wrap;rounded=0;fontFamily=Helvetica;fontSize=21;fontColor=#000000;" parent="x1KOT9eZgWGOnSstURv7-1" vertex="1">
          <mxGeometry x="440" y="2224" width="40" height="20" as="geometry" />
        </mxCell>
        <mxCell id="5UAvqiljonKKOVuh4oHW-2" value="Access" style="text;html=1;strokeColor=none;fillColor=none;align=center;verticalAlign=middle;whiteSpace=wrap;rounded=0;fontFamily=Helvetica;fontSize=21;" parent="x1KOT9eZgWGOnSstURv7-1" vertex="1">
          <mxGeometry x="734" y="2224" width="40" height="20" as="geometry" />
        </mxCell>
        <mxCell id="5UAvqiljonKKOVuh4oHW-5" value="&lt;font color=&quot;#000000&quot; style=&quot;font-size: 26px&quot;&gt;Display&amp;nbsp; &amp;nbsp; &amp;nbsp; &amp;nbsp; &amp;nbsp; &amp;nbsp; &amp;nbsp; &amp;nbsp; &amp;nbsp; &amp;nbsp; &amp;nbsp; &amp;nbsp; &amp;nbsp;results per page&lt;/font&gt;" style="text;html=1;resizable=0;autosize=1;align=center;verticalAlign=middle;points=[];fillColor=none;strokeColor=none;rounded=0;fontFamily=Helvetica;fontSize=26;fontColor=#FFFFFF;" parent="x1KOT9eZgWGOnSstURv7-1" vertex="1">
          <mxGeometry x="394" y="2325" width="462" height="35" as="geometry" />
        </mxCell>
        <mxCell id="5UAvqiljonKKOVuh4oHW-6" value="" style="align=center;fontSize=12;shape=rect;fillColor=#ffffff;strokeColor=#cccccc;strokeWidth=5;" parent="x1KOT9eZgWGOnSstURv7-1" vertex="1">
          <mxGeometry x="502" y="2321" width="153" height="50" as="geometry" />
        </mxCell>
        <mxCell id="5UAvqiljonKKOVuh4oHW-7" value="" style="dashed=0;html=1;shape=mxgraph.gmdl.triangle;fillColor=#cccccc;strokeColor=none;" parent="5UAvqiljonKKOVuh4oHW-6" vertex="1">
          <mxGeometry x="1" y="0.5" width="10" height="5" relative="1" as="geometry">
            <mxPoint x="-25" y="-2.5" as="offset" />
          </mxGeometry>
        </mxCell>
        <mxCell id="5UAvqiljonKKOVuh4oHW-8" value="" style="endArrow=none;html=1;fontFamily=Helvetica;fontSize=20;strokeWidth=1;strokeColor=#B3B3B3;" parent="x1KOT9eZgWGOnSstURv7-1" edge="1">
          <mxGeometry width="50" height="50" relative="1" as="geometry">
            <mxPoint x="351.5" y="2274" as="sourcePoint" />
            <mxPoint x="1257.5" y="2274" as="targetPoint" />
          </mxGeometry>
        </mxCell>
        <mxCell id="MfF1IRkq5KmcZ9P92Loy-0" value="Search" style="text;html=1;strokeColor=none;fillColor=none;align=center;verticalAlign=middle;whiteSpace=wrap;rounded=0;fontFamily=Helvetica;fontSize=21;fontColor=#000000;" parent="x1KOT9eZgWGOnSstURv7-1" vertex="1">
          <mxGeometry x="585" y="2972" width="40" height="20" as="geometry" />
        </mxCell>
        <mxCell id="MfF1IRkq5KmcZ9P92Loy-1" value="Appearance&amp;nbsp;" style="text;html=1;strokeColor=none;fillColor=none;align=center;verticalAlign=middle;whiteSpace=wrap;rounded=0;fontFamily=Helvetica;fontSize=21;fontColor=#000000;" parent="x1KOT9eZgWGOnSstURv7-1" vertex="1">
          <mxGeometry x="429" y="2972" width="40" height="20" as="geometry" />
        </mxCell>
        <mxCell id="MfF1IRkq5KmcZ9P92Loy-2" value="Access" style="text;html=1;strokeColor=none;fillColor=none;align=center;verticalAlign=middle;whiteSpace=wrap;rounded=0;fontFamily=Helvetica;fontSize=21;fontColor=#0288D1;fontStyle=1;" parent="x1KOT9eZgWGOnSstURv7-1" vertex="1">
          <mxGeometry x="723" y="2972" width="40" height="20" as="geometry" />
        </mxCell>
        <mxCell id="MfF1IRkq5KmcZ9P92Loy-3" value="gunnins is a member of:" style="text;html=1;resizable=0;autosize=1;align=center;verticalAlign=middle;points=[];fillColor=none;strokeColor=none;rounded=0;fontFamily=Helvetica;fontSize=26;fontStyle=1" parent="x1KOT9eZgWGOnSstURv7-1" vertex="1">
          <mxGeometry x="367" y="3067" width="311" height="35" as="geometry" />
        </mxCell>
        <mxCell id="MfF1IRkq5KmcZ9P92Loy-4" value="RCS Editor" style="text;html=1;resizable=0;autosize=1;align=center;verticalAlign=middle;points=[];fillColor=none;strokeColor=none;rounded=0;fontFamily=Helvetica;fontSize=26;fontColor=#000000;" parent="x1KOT9eZgWGOnSstURv7-1" vertex="1">
          <mxGeometry x="378" y="3149" width="140" height="35" as="geometry" />
        </mxCell>
        <mxCell id="MfF1IRkq5KmcZ9P92Loy-5" value="" style="shape=rect;fillColor=#ffffff;align=right;labelPosition=left;verticalLabelPosition=middle;verticalAlign=middle;strokeColor=#B3B3B3;" parent="x1KOT9eZgWGOnSstURv7-1" vertex="1">
          <mxGeometry x="-109" y="2767" width="445" height="669" as="geometry" />
        </mxCell>
        <mxCell id="MfF1IRkq5KmcZ9P92Loy-6" value="" style="rounded=0;whiteSpace=wrap;html=1;fontFamily=Helvetica;fontSize=18;fontColor=#333333;strokeColor=#999999;fillColor=#DEDEDE;" parent="MfF1IRkq5KmcZ9P92Loy-5" vertex="1">
          <mxGeometry x="21" y="322" width="420" height="60" as="geometry" />
        </mxCell>
        <mxCell id="MfF1IRkq5KmcZ9P92Loy-7" value="" style="dashed=0;shape=rect;align=right;strokeColor=none;fontColor=#FFFFFF;spacingRight=4;spacingTop=1;fontStyle=0;fontSize=13;resizeWidth=1;fillColor=#0288D1;" parent="MfF1IRkq5KmcZ9P92Loy-5" vertex="1">
          <mxGeometry width="445.0000000000001" height="24" relative="1" as="geometry" />
        </mxCell>
        <mxCell id="MfF1IRkq5KmcZ9P92Loy-8" value="" style="dashed=0;shape=rect;strokeColor=none;resizeWidth=1;fillColor=#03A9F4;" parent="MfF1IRkq5KmcZ9P92Loy-5" vertex="1">
          <mxGeometry width="1379.7486033519556" height="126" relative="1" as="geometry">
            <mxPoint y="25" as="offset" />
          </mxGeometry>
        </mxCell>
        <mxCell id="MfF1IRkq5KmcZ9P92Loy-9" value="Shawane K. Gunnings&#xa;CN=ABC.123.ORG.US&#xa;gunnins" style="text;fontSize=20;fontColor=#FFFFFF;spacingTop=-3;verticalAlign=middle;resizeWidth=1;align=left;spacingLeft=72;" parent="MfF1IRkq5KmcZ9P92Loy-8" vertex="1">
          <mxGeometry width="1379.7486033519556" height="24" relative="1" as="geometry">
            <mxPoint x="30820" y="165" as="offset" />
          </mxGeometry>
        </mxCell>
        <mxCell id="MfF1IRkq5KmcZ9P92Loy-10" value="" style="dashed=0;shape=mxgraph.gmdl.search;strokeColor=#084560;fillColor=none;strokeWidth=2;" parent="MfF1IRkq5KmcZ9P92Loy-8" vertex="1">
          <mxGeometry x="1" width="16" height="16" relative="1" as="geometry">
            <mxPoint x="-73" y="20" as="offset" />
          </mxGeometry>
        </mxCell>
        <mxCell id="MfF1IRkq5KmcZ9P92Loy-11" value="" style="dashed=0;shape=mxgraph.gmdl.rects;strokeColor=none;fillColor=#084560;" parent="MfF1IRkq5KmcZ9P92Loy-8" vertex="1">
          <mxGeometry x="1" width="18" height="16" relative="1" as="geometry">
            <mxPoint x="-34" y="20" as="offset" />
          </mxGeometry>
        </mxCell>
        <mxCell id="MfF1IRkq5KmcZ9P92Loy-12" value="" style="html=1;verticalLabelPosition=bottom;align=center;labelBackgroundColor=#ffffff;verticalAlign=top;strokeWidth=2;shadow=0;dashed=0;shape=mxgraph.ios7.icons.user;fontSize=16;fillColor=#FFFFFF;strokeColor=#098dca;" parent="MfF1IRkq5KmcZ9P92Loy-8" vertex="1">
          <mxGeometry x="19" y="32" width="57.43" height="55" as="geometry" />
        </mxCell>
        <mxCell id="MfF1IRkq5KmcZ9P92Loy-13" value="&lt;span style=&quot;background-color: rgb(3 , 169 , 244)&quot;&gt;&lt;b&gt;&lt;span style=&quot;color: rgb(255 , 255 , 255) ; font-family: &amp;#34;helvetica&amp;#34; ; font-size: 20px ; font-style: normal ; letter-spacing: normal ; text-align: left ; text-indent: 0px ; text-transform: none ; word-spacing: 0px ; display: inline ; float: none&quot;&gt;Shawane K. Gunnings&lt;/span&gt;&lt;br style=&quot;padding: 0px ; margin: 0px ; color: rgb(255 , 255 , 255) ; font-family: &amp;#34;helvetica&amp;#34; ; font-size: 20px ; font-style: normal ; letter-spacing: normal ; text-align: left ; text-indent: 0px ; text-transform: none ; word-spacing: 0px&quot;&gt;&lt;/b&gt;&lt;br&gt;&lt;/span&gt;" style="text;whiteSpace=wrap;html=1;" parent="MfF1IRkq5KmcZ9P92Loy-8" vertex="1">
          <mxGeometry x="91.00340782122908" y="42" width="279.67877094972073" height="65" as="geometry" />
        </mxCell>
        <mxCell id="MfF1IRkq5KmcZ9P92Loy-14" value="Records Control Schedule Service" style="dashed=0;shape=rect;strokeColor=none;resizeWidth=1;fontSize=18;verticalAlign=middle;align=center;spacingLeft=72;labelPosition=center;verticalLabelPosition=middle;fontStyle=1;fontFamily=Helvetica;fillColor=none;" parent="MfF1IRkq5KmcZ9P92Loy-5" vertex="1">
          <mxGeometry width="316.1" height="48" relative="1" as="geometry">
            <mxPoint x="17.15" y="248" as="offset" />
          </mxGeometry>
        </mxCell>
        <mxCell id="MfF1IRkq5KmcZ9P92Loy-15" value="Information Management Approval Service" style="dashed=0;shape=rect;strokeColor=none;resizeWidth=1;fontSize=18;verticalAlign=middle;align=left;spacingLeft=72;fontStyle=0;fillColor=none;" parent="MfF1IRkq5KmcZ9P92Loy-5" vertex="1">
          <mxGeometry width="213" height="48" relative="1" as="geometry">
            <mxPoint x="-5.773159728050814e-15" y="324" as="offset" />
          </mxGeometry>
        </mxCell>
        <mxCell id="MfF1IRkq5KmcZ9P92Loy-16" value="Eva" style="dashed=0;shape=rect;strokeColor=none;fillColor=#ffffff;resizeWidth=1;fontSize=18;verticalAlign=middle;align=left;spacingLeft=72;fontStyle=0" parent="MfF1IRkq5KmcZ9P92Loy-5" vertex="1">
          <mxGeometry width="377.9753086419754" height="48" relative="1" as="geometry">
            <mxPoint y="399" as="offset" />
          </mxGeometry>
        </mxCell>
        <mxCell id="MfF1IRkq5KmcZ9P92Loy-17" value="Records Management Metadata Service" style="dashed=0;shape=rect;strokeColor=none;fillColor=#ffffff;resizeWidth=1;fontSize=18;verticalAlign=middle;align=center;spacingLeft=72;fontStyle=0" parent="MfF1IRkq5KmcZ9P92Loy-5" vertex="1">
          <mxGeometry width="374.8804086538462" height="42" relative="1" as="geometry">
            <mxPoint x="12.15" y="468" as="offset" />
          </mxGeometry>
        </mxCell>
        <mxCell id="MfF1IRkq5KmcZ9P92Loy-18" value="" style="dashed=0;shape=rect;strokeColor=none;fillColor=#000000;resizeWidth=1;" parent="MfF1IRkq5KmcZ9P92Loy-5" vertex="1">
          <mxGeometry y="1" width="445.0000000000001" height="48" relative="1" as="geometry">
            <mxPoint y="-48" as="offset" />
          </mxGeometry>
        </mxCell>
        <mxCell id="MfF1IRkq5KmcZ9P92Loy-19" value="Global Preferences" style="dashed=0;shape=rect;strokeColor=none;resizeWidth=1;fontSize=18;verticalAlign=middle;align=left;spacingLeft=72;labelPosition=center;verticalLabelPosition=middle;fontStyle=0;fontFamily=Helvetica;fillColor=none;" parent="MfF1IRkq5KmcZ9P92Loy-5" vertex="1">
          <mxGeometry x="6.000000000000092" y="185" width="316.1" height="48" as="geometry" />
        </mxCell>
        <mxCell id="MfF1IRkq5KmcZ9P92Loy-20" value="r" style="rounded=0;whiteSpace=wrap;html=1;fontFamily=Helvetica;fontSize=20;fontColor=#0288D1;fillColor=#0288D1;strokeColor=#0288D1;" parent="x1KOT9eZgWGOnSstURv7-1" vertex="1">
          <mxGeometry x="382.75" y="3396.5" width="188.5" height="22" as="geometry" />
        </mxCell>
        <mxCell id="MfF1IRkq5KmcZ9P92Loy-21" value="&lt;font style=&quot;font-size: 16px&quot;&gt;Reset to Default&lt;/font&gt;" style="text;html=1;strokeColor=none;fillColor=none;align=center;verticalAlign=middle;whiteSpace=wrap;rounded=0;fontFamily=Helvetica;fontSize=20;fontColor=#FFFFFF;" parent="x1KOT9eZgWGOnSstURv7-1" vertex="1">
          <mxGeometry x="386.5" y="3396.5" width="181" height="20" as="geometry" />
        </mxCell>
        <mxCell id="MfF1IRkq5KmcZ9P92Loy-22" value="" style="dashed=0;shape=rect;align=right;strokeColor=none;fontColor=#FFFFFF;spacingRight=4;spacingTop=1;fontStyle=0;fontSize=13;resizeWidth=1;fillColor=#0288D1;" parent="x1KOT9eZgWGOnSstURv7-1" vertex="1">
          <mxGeometry x="336" y="2767" width="933" height="24" as="geometry" />
        </mxCell>
        <mxCell id="MfF1IRkq5KmcZ9P92Loy-29" value="" style="endArrow=none;html=1;fontFamily=Helvetica;fontSize=20;strokeWidth=1;strokeColor=#B3B3B3;" parent="x1KOT9eZgWGOnSstURv7-1" edge="1">
          <mxGeometry width="50" height="50" relative="1" as="geometry">
            <mxPoint x="353.5" y="3017" as="sourcePoint" />
            <mxPoint x="1259.5" y="3017" as="targetPoint" />
          </mxGeometry>
        </mxCell>
        <mxCell id="XUGSFqP3DNxgtQ8XIZve-3" value="" style="rounded=0;whiteSpace=wrap;html=1;fillColor=#000000;" parent="x1KOT9eZgWGOnSstURv7-1" vertex="1">
          <mxGeometry x="837" y="-139.87" width="41" height="11.87" as="geometry" />
        </mxCell>
        <mxCell id="ebYmOStwoe-n9_nN3BlF-0" value="My Profile" style="text;html=1;strokeColor=none;fillColor=none;align=center;verticalAlign=middle;whiteSpace=wrap;rounded=0;fontFamily=Helvetica;fontSize=21;" parent="x1KOT9eZgWGOnSstURv7-1" vertex="1">
          <mxGeometry x="642" y="-266.5" width="103" height="20" as="geometry" />
        </mxCell>
        <mxCell id="ebYmOStwoe-n9_nN3BlF-1" value="Theme" style="text;html=1;strokeColor=none;fillColor=none;align=center;verticalAlign=middle;whiteSpace=wrap;rounded=0;fontFamily=Helvetica;fontSize=21;fontStyle=1;fontColor=#0288D1;" parent="x1KOT9eZgWGOnSstURv7-1" vertex="1">
          <mxGeometry x="484" y="-266.5" width="40" height="20" as="geometry" />
        </mxCell>
        <mxCell id="ebYmOStwoe-n9_nN3BlF-2" value="Placeholder" style="text;html=1;strokeColor=none;fillColor=none;align=center;verticalAlign=middle;whiteSpace=wrap;rounded=0;fontFamily=Helvetica;fontSize=21;" parent="x1KOT9eZgWGOnSstURv7-1" vertex="1">
          <mxGeometry x="902" y="-266.5" width="40" height="20" as="geometry" />
        </mxCell>
        <mxCell id="ebYmOStwoe-n9_nN3BlF-3" value="" style="endArrow=none;html=1;fontFamily=Helvetica;fontSize=20;strokeWidth=1;strokeColor=#B3B3B3;" parent="x1KOT9eZgWGOnSstURv7-1" edge="1">
          <mxGeometry width="50" height="50" relative="1" as="geometry">
            <mxPoint x="387" y="-229" as="sourcePoint" />
            <mxPoint x="1293" y="-229" as="targetPoint" />
          </mxGeometry>
        </mxCell>
        <mxCell id="ebYmOStwoe-n9_nN3BlF-4" value="" style="dashed=0;shape=rect;align=right;strokeColor=none;fontColor=#FFFFFF;spacingRight=4;spacingTop=1;fontStyle=0;fontSize=13;resizeWidth=1;fillColor=#0288D1;" parent="x1KOT9eZgWGOnSstURv7-1" vertex="1">
          <mxGeometry x="342" y="305" width="948" height="24" as="geometry" />
        </mxCell>
        <mxCell id="ebYmOStwoe-n9_nN3BlF-5" value="" style="shape=rect;fillColor=#ffffff;align=right;labelPosition=left;verticalLabelPosition=middle;verticalAlign=middle;strokeColor=#B3B3B3;" parent="x1KOT9eZgWGOnSstURv7-1" vertex="1">
          <mxGeometry x="-88" y="305" width="445" height="669" as="geometry" />
        </mxCell>
        <mxCell id="ebYmOStwoe-n9_nN3BlF-6" value="" style="rounded=0;whiteSpace=wrap;html=1;fontFamily=Helvetica;fontSize=18;fontColor=#333333;strokeColor=#999999;fillColor=#DEDEDE;" parent="ebYmOStwoe-n9_nN3BlF-5" vertex="1">
          <mxGeometry x="12.5" y="178" width="420" height="60" as="geometry" />
        </mxCell>
        <mxCell id="ebYmOStwoe-n9_nN3BlF-7" value="" style="dashed=0;shape=rect;align=right;strokeColor=none;fontColor=#FFFFFF;spacingRight=4;spacingTop=1;fontStyle=0;fontSize=13;resizeWidth=1;fillColor=#0288D1;" parent="ebYmOStwoe-n9_nN3BlF-5" vertex="1">
          <mxGeometry width="445.0000000000001" height="24" relative="1" as="geometry" />
        </mxCell>
        <mxCell id="ebYmOStwoe-n9_nN3BlF-8" value="" style="dashed=0;shape=rect;strokeColor=none;resizeWidth=1;fillColor=#03A9F4;" parent="ebYmOStwoe-n9_nN3BlF-5" vertex="1">
          <mxGeometry width="1379.7486033519556" height="126" relative="1" as="geometry">
            <mxPoint y="25" as="offset" />
          </mxGeometry>
        </mxCell>
        <mxCell id="ebYmOStwoe-n9_nN3BlF-9" value="Shawane K. Gunnings&#xa;CN=ABC.123.ORG.US&#xa;gunnins" style="text;fontSize=20;fontColor=#FFFFFF;spacingTop=-3;verticalAlign=middle;resizeWidth=1;align=left;spacingLeft=72;" parent="ebYmOStwoe-n9_nN3BlF-8" vertex="1">
          <mxGeometry width="1379.7486033519556" height="24" relative="1" as="geometry">
            <mxPoint x="30820" y="165" as="offset" />
          </mxGeometry>
        </mxCell>
        <mxCell id="ebYmOStwoe-n9_nN3BlF-10" value="" style="dashed=0;shape=mxgraph.gmdl.search;strokeColor=#084560;fillColor=none;strokeWidth=2;" parent="ebYmOStwoe-n9_nN3BlF-8" vertex="1">
          <mxGeometry x="1" width="16" height="16" relative="1" as="geometry">
            <mxPoint x="-73" y="20" as="offset" />
          </mxGeometry>
        </mxCell>
        <mxCell id="ebYmOStwoe-n9_nN3BlF-11" value="" style="dashed=0;shape=mxgraph.gmdl.rects;strokeColor=none;fillColor=#084560;" parent="ebYmOStwoe-n9_nN3BlF-8" vertex="1">
          <mxGeometry x="1" width="18" height="16" relative="1" as="geometry">
            <mxPoint x="-34" y="20" as="offset" />
          </mxGeometry>
        </mxCell>
        <mxCell id="ebYmOStwoe-n9_nN3BlF-12" value="" style="html=1;verticalLabelPosition=bottom;align=center;labelBackgroundColor=#ffffff;verticalAlign=top;strokeWidth=2;shadow=0;dashed=0;shape=mxgraph.ios7.icons.user;fontSize=16;fillColor=#FFFFFF;strokeColor=#098dca;" parent="ebYmOStwoe-n9_nN3BlF-8" vertex="1">
          <mxGeometry x="19" y="32" width="57.43" height="55" as="geometry" />
        </mxCell>
        <mxCell id="ebYmOStwoe-n9_nN3BlF-13" value="&lt;span style=&quot;background-color: rgb(3 , 169 , 244)&quot;&gt;&lt;b&gt;&lt;span style=&quot;color: rgb(255 , 255 , 255) ; font-family: &amp;#34;helvetica&amp;#34; ; font-size: 20px ; font-style: normal ; letter-spacing: normal ; text-align: left ; text-indent: 0px ; text-transform: none ; word-spacing: 0px ; display: inline ; float: none&quot;&gt;Shawane K. Gunnings&lt;/span&gt;&lt;br style=&quot;padding: 0px ; margin: 0px ; color: rgb(255 , 255 , 255) ; font-family: &amp;#34;helvetica&amp;#34; ; font-size: 20px ; font-style: normal ; letter-spacing: normal ; text-align: left ; text-indent: 0px ; text-transform: none ; word-spacing: 0px&quot;&gt;&lt;/b&gt;&lt;br&gt;&lt;/span&gt;" style="text;whiteSpace=wrap;html=1;" parent="ebYmOStwoe-n9_nN3BlF-8" vertex="1">
          <mxGeometry x="91.00340782122908" y="42" width="279.67877094972073" height="65" as="geometry" />
        </mxCell>
        <mxCell id="ebYmOStwoe-n9_nN3BlF-14" value="Records Control Schedule Service" style="dashed=0;shape=rect;strokeColor=none;fillColor=#ffffff;resizeWidth=1;fontSize=18;verticalAlign=middle;align=center;spacingLeft=72;labelPosition=center;verticalLabelPosition=middle;fontStyle=0;fontFamily=Helvetica;" parent="ebYmOStwoe-n9_nN3BlF-5" vertex="1">
          <mxGeometry width="316.1" height="48" relative="1" as="geometry">
            <mxPoint x="17.15" y="248" as="offset" />
          </mxGeometry>
        </mxCell>
        <mxCell id="ebYmOStwoe-n9_nN3BlF-15" value="Information Management Approval Service" style="dashed=0;shape=rect;strokeColor=none;fillColor=#ffffff;resizeWidth=1;fontSize=18;verticalAlign=middle;align=left;spacingLeft=72;fontStyle=0" parent="ebYmOStwoe-n9_nN3BlF-5" vertex="1">
          <mxGeometry width="185" height="48" relative="1" as="geometry">
            <mxPoint x="1.999999999999993" y="326" as="offset" />
          </mxGeometry>
        </mxCell>
        <mxCell id="ebYmOStwoe-n9_nN3BlF-16" value="Eva" style="dashed=0;shape=rect;strokeColor=none;fillColor=#ffffff;resizeWidth=1;fontSize=18;verticalAlign=middle;align=left;spacingLeft=72;fontStyle=0" parent="ebYmOStwoe-n9_nN3BlF-5" vertex="1">
          <mxGeometry width="377.9753086419754" height="48" relative="1" as="geometry">
            <mxPoint y="399" as="offset" />
          </mxGeometry>
        </mxCell>
        <mxCell id="ebYmOStwoe-n9_nN3BlF-17" value="Records Management Metadata Service" style="dashed=0;shape=rect;strokeColor=none;fillColor=#ffffff;resizeWidth=1;fontSize=18;verticalAlign=middle;align=center;spacingLeft=72;fontStyle=0" parent="ebYmOStwoe-n9_nN3BlF-5" vertex="1">
          <mxGeometry width="374.8804086538462" height="42" relative="1" as="geometry">
            <mxPoint x="12.15" y="468" as="offset" />
          </mxGeometry>
        </mxCell>
        <mxCell id="ebYmOStwoe-n9_nN3BlF-18" value="" style="dashed=0;shape=rect;strokeColor=none;fillColor=#000000;resizeWidth=1;" parent="ebYmOStwoe-n9_nN3BlF-5" vertex="1">
          <mxGeometry y="1" width="445.0000000000001" height="48" relative="1" as="geometry">
            <mxPoint y="-48" as="offset" />
          </mxGeometry>
        </mxCell>
        <mxCell id="ebYmOStwoe-n9_nN3BlF-19" value="Global Preferences" style="dashed=0;shape=rect;strokeColor=none;resizeWidth=1;fontSize=18;verticalAlign=middle;align=left;spacingLeft=72;labelPosition=center;verticalLabelPosition=middle;fontStyle=1;fontFamily=Helvetica;fillColor=none;" parent="ebYmOStwoe-n9_nN3BlF-5" vertex="1">
          <mxGeometry x="6.000000000000092" y="185" width="316.1" height="48" as="geometry" />
        </mxCell>
        <mxCell id="ebYmOStwoe-n9_nN3BlF-31" value="&lt;font style=&quot;font-size: 16px&quot;&gt;Reset to Default&lt;/font&gt;" style="text;html=1;strokeColor=none;fillColor=none;align=center;verticalAlign=middle;whiteSpace=wrap;rounded=0;fontFamily=Helvetica;fontSize=20;fontColor=#FFFFFF;" parent="x1KOT9eZgWGOnSstURv7-1" vertex="1">
          <mxGeometry x="381" y="946" width="181" height="20" as="geometry" />
        </mxCell>
        <mxCell id="ebYmOStwoe-n9_nN3BlF-33" value="" style="shape=actor;whiteSpace=wrap;html=1;strokeWidth=2;fontSize=18;fontColor=#999999;align=left;strokeColor=none;fillColor=#03A9F4;" parent="x1KOT9eZgWGOnSstURv7-1" vertex="1">
          <mxGeometry x="429" y="555" width="47" height="62" as="geometry" />
        </mxCell>
        <mxCell id="ebYmOStwoe-n9_nN3BlF-34" value="" style="rounded=0;whiteSpace=wrap;html=1;fontFamily=Helvetica;fontSize=20;fontColor=#0288D1;fillColor=#FFFFFF;strokeColor=#FFFFFF;shadow=1;" parent="x1KOT9eZgWGOnSstURv7-1" vertex="1">
          <mxGeometry x="522" y="552.5" width="224" height="67" as="geometry" />
        </mxCell>
        <mxCell id="ebYmOStwoe-n9_nN3BlF-35" value="&lt;font color=&quot;#000000&quot; style=&quot;font-size: 19px;&quot;&gt;View My Profile&lt;/font&gt;" style="text;html=1;strokeColor=none;fillColor=none;align=center;verticalAlign=middle;whiteSpace=wrap;rounded=0;fontFamily=Helvetica;fontSize=19;fontColor=#03A9F4;" parent="x1KOT9eZgWGOnSstURv7-1" vertex="1">
          <mxGeometry x="540" y="568.5" width="176" height="40.5" as="geometry" />
        </mxCell>
        <mxCell id="ebYmOStwoe-n9_nN3BlF-44" value="&lt;b&gt;My Profile&lt;/b&gt;" style="text;html=1;strokeColor=none;fillColor=none;align=center;verticalAlign=middle;whiteSpace=wrap;rounded=0;fontFamily=Helvetica;fontSize=21;fontColor=#0288D1;fontStyle=1;" parent="x1KOT9eZgWGOnSstURv7-1" vertex="1">
          <mxGeometry x="636" y="465.5" width="103" height="20" as="geometry" />
        </mxCell>
        <mxCell id="ebYmOStwoe-n9_nN3BlF-45" value="Theme" style="text;html=1;strokeColor=none;fillColor=none;align=center;verticalAlign=middle;whiteSpace=wrap;rounded=0;fontFamily=Helvetica;fontSize=21;fontStyle=0;" parent="x1KOT9eZgWGOnSstURv7-1" vertex="1">
          <mxGeometry x="478" y="465.5" width="40" height="20" as="geometry" />
        </mxCell>
        <mxCell id="ebYmOStwoe-n9_nN3BlF-46" value="Placeholder" style="text;html=1;strokeColor=none;fillColor=none;align=center;verticalAlign=middle;whiteSpace=wrap;rounded=0;fontFamily=Helvetica;fontSize=21;" parent="x1KOT9eZgWGOnSstURv7-1" vertex="1">
          <mxGeometry x="896" y="465.5" width="40" height="20" as="geometry" />
        </mxCell>
        <mxCell id="ebYmOStwoe-n9_nN3BlF-47" value="" style="endArrow=none;html=1;fontFamily=Helvetica;fontSize=20;strokeWidth=1;strokeColor=#B3B3B3;" parent="x1KOT9eZgWGOnSstURv7-1" edge="1">
          <mxGeometry width="50" height="50" relative="1" as="geometry">
            <mxPoint x="381" y="509" as="sourcePoint" />
            <mxPoint x="1287" y="509" as="targetPoint" />
          </mxGeometry>
        </mxCell>
        <mxCell id="ebYmOStwoe-n9_nN3BlF-48" value="EST" style="html=1;shadow=0;dashed=0;shape=mxgraph.atlassian.checkbox_2;strokeColor=none;align=left;verticalAlign=middle;fontStyle=0;fontSize=22;labelPosition=right;verticalLabelPosition=middle;spacingLeft=10;fillColor=#03A9DF;" parent="x1KOT9eZgWGOnSstURv7-1" vertex="1">
          <mxGeometry x="413" y="3310" width="30" height="30" as="geometry" />
        </mxCell>
        <mxCell id="ebYmOStwoe-n9_nN3BlF-49" value="Show DMO Orgs:" style="text;html=1;resizable=0;autosize=1;align=center;verticalAlign=middle;points=[];fillColor=none;strokeColor=none;rounded=0;fontFamily=Helvetica;fontSize=26;fontStyle=1" parent="x1KOT9eZgWGOnSstURv7-1" vertex="1">
          <mxGeometry x="363" y="3249" width="224" height="35" as="geometry" />
        </mxCell>
        <mxCell id="ebYmOStwoe-n9_nN3BlF-51" value="EA" style="html=1;shadow=0;dashed=0;shape=mxgraph.atlassian.checkbox_2;fillColor=#03A9DF;strokeColor=none;align=left;verticalAlign=middle;fontStyle=0;fontSize=22;labelPosition=right;verticalLabelPosition=middle;spacingLeft=10" parent="x1KOT9eZgWGOnSstURv7-1" vertex="1">
          <mxGeometry x="569" y="3310" width="30" height="30" as="geometry" />
        </mxCell>
        <mxCell id="ebYmOStwoe-n9_nN3BlF-52" value="EIR" style="html=1;shadow=0;dashed=0;shape=mxgraph.atlassian.checkbox_2;fillColor=#03A9DF;strokeColor=none;align=left;verticalAlign=middle;fontStyle=0;fontSize=22;labelPosition=right;verticalLabelPosition=middle;spacingLeft=10" parent="x1KOT9eZgWGOnSstURv7-1" vertex="1">
          <mxGeometry x="730" y="3308" width="30" height="30" as="geometry" />
        </mxCell>
        <mxCell id="ebYmOStwoe-n9_nN3BlF-53" value="&lt;font style=&quot;font-size: 22px&quot;&gt;EO&lt;/font&gt;" style="rounded=1;align=left;verticalAlign=middle;fontStyle=0;fontSize=12;labelPosition=right;verticalLabelPosition=middle;spacingLeft=10;html=1;shadow=0;dashed=0;fillColor=#FFFFFF;strokeColor=#03A9D4;" parent="x1KOT9eZgWGOnSstURv7-1" vertex="1">
          <mxGeometry x="897" y="3308" width="30" height="30" as="geometry" />
        </mxCell>
        <mxCell id="RK0Z4RVUzcvzWYm0pBNK-1" value="" style="rounded=0;whiteSpace=wrap;html=1;shadow=1;rotation=-90;" parent="x1KOT9eZgWGOnSstURv7-1" vertex="1">
          <mxGeometry x="833.75" y="-122.87" width="46.5" height="39.5" as="geometry" />
        </mxCell>
      </root>
    </mxGraphModel>
  </diagram>
  <diagram id="H9qCci0D1xOaqSSpUsIb" name="Pageflow">
    <mxGraphModel dx="1422" dy="893" grid="1" gridSize="10" guides="1" tooltips="1" connect="1" arrows="1" fold="1" page="1" pageScale="1" pageWidth="1100" pageHeight="850" math="0" shadow="0">
      <root>
        <mxCell id="rQ1xdRsEnztYG8ICG31i-0" />
        <mxCell id="rQ1xdRsEnztYG8ICG31i-1" parent="rQ1xdRsEnztYG8ICG31i-0" />
        <mxCell id="R1T1UXPI-L1ApIr9YhOL-6" style="edgeStyle=orthogonalEdgeStyle;rounded=0;orthogonalLoop=1;jettySize=auto;html=1;exitX=0.5;exitY=1;exitDx=0;exitDy=0;" parent="rQ1xdRsEnztYG8ICG31i-1" source="rQ1xdRsEnztYG8ICG31i-2" target="unHM6BXImE_GsMANJNoL-0" edge="1">
          <mxGeometry relative="1" as="geometry" />
        </mxCell>
        <mxCell id="R1T1UXPI-L1ApIr9YhOL-8" style="edgeStyle=orthogonalEdgeStyle;rounded=0;orthogonalLoop=1;jettySize=auto;html=1;exitX=0.5;exitY=1;exitDx=0;exitDy=0;" parent="rQ1xdRsEnztYG8ICG31i-1" source="rQ1xdRsEnztYG8ICG31i-2" target="vgMPPLFTWLlOC1JZelwS-0" edge="1">
          <mxGeometry relative="1" as="geometry" />
        </mxCell>
        <mxCell id="R1T1UXPI-L1ApIr9YhOL-9" style="edgeStyle=orthogonalEdgeStyle;rounded=0;orthogonalLoop=1;jettySize=auto;html=1;exitX=0.5;exitY=1;exitDx=0;exitDy=0;" parent="rQ1xdRsEnztYG8ICG31i-1" source="rQ1xdRsEnztYG8ICG31i-2" target="R1T1UXPI-L1ApIr9YhOL-0" edge="1">
          <mxGeometry relative="1" as="geometry" />
        </mxCell>
        <mxCell id="R1T1UXPI-L1ApIr9YhOL-10" style="edgeStyle=orthogonalEdgeStyle;rounded=0;orthogonalLoop=1;jettySize=auto;html=1;exitX=0.5;exitY=1;exitDx=0;exitDy=0;" parent="rQ1xdRsEnztYG8ICG31i-1" source="rQ1xdRsEnztYG8ICG31i-2" target="R1T1UXPI-L1ApIr9YhOL-1" edge="1">
          <mxGeometry relative="1" as="geometry" />
        </mxCell>
        <mxCell id="R1T1UXPI-L1ApIr9YhOL-11" style="edgeStyle=orthogonalEdgeStyle;rounded=0;orthogonalLoop=1;jettySize=auto;html=1;exitX=0.5;exitY=1;exitDx=0;exitDy=0;" parent="rQ1xdRsEnztYG8ICG31i-1" source="rQ1xdRsEnztYG8ICG31i-2" target="R1T1UXPI-L1ApIr9YhOL-2" edge="1">
          <mxGeometry relative="1" as="geometry" />
        </mxCell>
        <mxCell id="R1T1UXPI-L1ApIr9YhOL-12" style="edgeStyle=orthogonalEdgeStyle;rounded=0;orthogonalLoop=1;jettySize=auto;html=1;exitX=0.5;exitY=1;exitDx=0;exitDy=0;" parent="rQ1xdRsEnztYG8ICG31i-1" source="rQ1xdRsEnztYG8ICG31i-2" target="R1T1UXPI-L1ApIr9YhOL-3" edge="1">
          <mxGeometry relative="1" as="geometry" />
        </mxCell>
        <mxCell id="R1T1UXPI-L1ApIr9YhOL-13" style="edgeStyle=orthogonalEdgeStyle;rounded=0;orthogonalLoop=1;jettySize=auto;html=1;exitX=0.5;exitY=1;exitDx=0;exitDy=0;entryX=0.5;entryY=0;entryDx=0;entryDy=0;" parent="rQ1xdRsEnztYG8ICG31i-1" source="rQ1xdRsEnztYG8ICG31i-2" target="R1T1UXPI-L1ApIr9YhOL-4" edge="1">
          <mxGeometry relative="1" as="geometry" />
        </mxCell>
        <mxCell id="R1T1UXPI-L1ApIr9YhOL-14" style="edgeStyle=orthogonalEdgeStyle;rounded=0;orthogonalLoop=1;jettySize=auto;html=1;exitX=0.5;exitY=1;exitDx=0;exitDy=0;entryX=0.5;entryY=0;entryDx=0;entryDy=0;" parent="rQ1xdRsEnztYG8ICG31i-1" source="rQ1xdRsEnztYG8ICG31i-2" target="R1T1UXPI-L1ApIr9YhOL-5" edge="1">
          <mxGeometry relative="1" as="geometry" />
        </mxCell>
        <mxCell id="rQ1xdRsEnztYG8ICG31i-2" value="User Prefs" style="rounded=0;whiteSpace=wrap;html=1;" parent="rQ1xdRsEnztYG8ICG31i-1" vertex="1">
          <mxGeometry x="430" y="30" width="120" height="60" as="geometry" />
        </mxCell>
        <mxCell id="unHM6BXImE_GsMANJNoL-0" value="Global Preferences" style="rounded=0;whiteSpace=wrap;html=1;" parent="rQ1xdRsEnztYG8ICG31i-1" vertex="1">
          <mxGeometry x="20" y="200" width="120" height="60" as="geometry" />
        </mxCell>
        <mxCell id="vgMPPLFTWLlOC1JZelwS-0" value="RCS" style="rounded=0;whiteSpace=wrap;html=1;" parent="rQ1xdRsEnztYG8ICG31i-1" vertex="1">
          <mxGeometry x="160" y="200" width="120" height="60" as="geometry" />
        </mxCell>
        <mxCell id="R1T1UXPI-L1ApIr9YhOL-0" value="IMA" style="rounded=0;whiteSpace=wrap;html=1;" parent="rQ1xdRsEnztYG8ICG31i-1" vertex="1">
          <mxGeometry x="300" y="200" width="120" height="60" as="geometry" />
        </mxCell>
        <mxCell id="R1T1UXPI-L1ApIr9YhOL-1" value="Eva" style="rounded=0;whiteSpace=wrap;html=1;" parent="rQ1xdRsEnztYG8ICG31i-1" vertex="1">
          <mxGeometry x="430" y="200" width="120" height="60" as="geometry" />
        </mxCell>
        <mxCell id="R1T1UXPI-L1ApIr9YhOL-2" value="SCGR" style="rounded=0;whiteSpace=wrap;html=1;" parent="rQ1xdRsEnztYG8ICG31i-1" vertex="1">
          <mxGeometry x="570" y="200" width="120" height="60" as="geometry" />
        </mxCell>
        <mxCell id="R1T1UXPI-L1ApIr9YhOL-3" value="MarkID" style="rounded=0;whiteSpace=wrap;html=1;" parent="rQ1xdRsEnztYG8ICG31i-1" vertex="1">
          <mxGeometry x="720" y="200" width="120" height="60" as="geometry" />
        </mxCell>
        <mxCell id="R1T1UXPI-L1ApIr9YhOL-4" value="RMMS" style="rounded=0;whiteSpace=wrap;html=1;" parent="rQ1xdRsEnztYG8ICG31i-1" vertex="1">
          <mxGeometry x="850" y="200" width="120" height="60" as="geometry" />
        </mxCell>
        <mxCell id="R1T1UXPI-L1ApIr9YhOL-5" value="etc..." style="rounded=0;whiteSpace=wrap;html=1;" parent="rQ1xdRsEnztYG8ICG31i-1" vertex="1">
          <mxGeometry x="980" y="200" width="120" height="60" as="geometry" />
        </mxCell>
      </root>
    </mxGraphModel>
  </diagram>
  <diagram id="BuD91LFvHqRPLkw8qY1a" name="Sequence">
    <mxGraphModel dx="1422" dy="867" grid="1" gridSize="10" guides="1" tooltips="1" connect="1" arrows="1" fold="1" page="1" pageScale="1" pageWidth="850" pageHeight="1100" math="0" shadow="0">
      <root>
        <mxCell id="gSnDp3KwC2gbsZZSmgc5-0" />
        <mxCell id="gSnDp3KwC2gbsZZSmgc5-1" parent="gSnDp3KwC2gbsZZSmgc5-0" />
        <mxCell id="siBZ8K74GjKJBZGdMy9o-2" value="uPS:userPreferenceService" style="shape=umlLifeline;perimeter=lifelinePerimeter;whiteSpace=wrap;html=1;container=1;collapsible=0;recursiveResize=0;outlineConnect=0;size=40;" parent="gSnDp3KwC2gbsZZSmgc5-1" vertex="1">
          <mxGeometry x="235" y="30" width="515" height="1010" as="geometry" />
        </mxCell>
        <mxCell id="siBZ8K74GjKJBZGdMy9o-3" value="" style="html=1;points=[];perimeter=orthogonalPerimeter;" parent="siBZ8K74GjKJBZGdMy9o-2" vertex="1">
          <mxGeometry x="90" y="100" width="10" height="910" as="geometry" />
        </mxCell>
        <mxCell id="siBZ8K74GjKJBZGdMy9o-20" value="s:System" style="shape=umlLifeline;perimeter=lifelinePerimeter;whiteSpace=wrap;html=1;container=1;collapsible=0;recursiveResize=0;outlineConnect=0;" parent="gSnDp3KwC2gbsZZSmgc5-1" vertex="1">
          <mxGeometry x="50" y="30" width="100" height="1000" as="geometry" />
        </mxCell>
        <mxCell id="siBZ8K74GjKJBZGdMy9o-24" value="1 updatePreferences&lt;br&gt;(String node, String value, String userId)" style="html=1;verticalAlign=bottom;endArrow=block;entryX=0;entryY=0.002;entryDx=0;entryDy=0;entryPerimeter=0;" parent="gSnDp3KwC2gbsZZSmgc5-1" edge="1">
          <mxGeometry width="80" relative="1" as="geometry">
            <mxPoint x="99.07142857142844" y="140.72000000000003" as="sourcePoint" />
            <mxPoint x="325" y="140.82000000000005" as="targetPoint" />
            <Array as="points" />
          </mxGeometry>
        </mxCell>
        <mxCell id="siBZ8K74GjKJBZGdMy9o-37" value="2 getPreferences(String node,String userId" style="html=1;verticalAlign=bottom;endArrow=block;entryX=0;entryY=0.002;entryDx=0;entryDy=0;entryPerimeter=0;" parent="gSnDp3KwC2gbsZZSmgc5-1" edge="1">
          <mxGeometry x="0.018" width="80" relative="1" as="geometry">
            <mxPoint x="100.00142857142845" y="210" as="sourcePoint" />
            <mxPoint x="325.93" y="210" as="targetPoint" />
            <Array as="points" />
            <mxPoint as="offset" />
          </mxGeometry>
        </mxCell>
        <mxCell id="siBZ8K74GjKJBZGdMy9o-41" value="1.1storePreference" style="html=1;verticalAlign=bottom;endArrow=block;" parent="gSnDp3KwC2gbsZZSmgc5-1" edge="1">
          <mxGeometry x="0.018" width="80" relative="1" as="geometry">
            <mxPoint x="337.0314285714285" y="175" as="sourcePoint" />
            <mxPoint x="492" y="175" as="targetPoint" />
            <Array as="points" />
            <mxPoint as="offset" />
          </mxGeometry>
        </mxCell>
        <mxCell id="s3eTTUSc_ay0Z-AUR7fk-0" value="3 deletePreferences(Node string, String userId)" style="html=1;verticalAlign=bottom;endArrow=block;entryX=0;entryY=0.002;entryDx=0;entryDy=0;entryPerimeter=0;" parent="gSnDp3KwC2gbsZZSmgc5-1" edge="1">
          <mxGeometry x="0.018" width="80" relative="1" as="geometry">
            <mxPoint x="100.0014285714285" y="260" as="sourcePoint" />
            <mxPoint x="325.93000000000006" y="260" as="targetPoint" />
            <Array as="points" />
            <mxPoint as="offset" />
          </mxGeometry>
        </mxCell>
        <mxCell id="LEyl2nw-NiYFt5qGyoke-0" value="&lt;div&gt;Success&lt;/div&gt;&lt;div&gt;&lt;br&gt;&lt;/div&gt;" style="shape=umlFrame;whiteSpace=wrap;html=1;" parent="gSnDp3KwC2gbsZZSmgc5-1" vertex="1">
          <mxGeometry x="50" y="290" width="470" height="130" as="geometry" />
        </mxCell>
        <mxCell id="LEyl2nw-NiYFt5qGyoke-1" value="1.2 return Success " style="html=1;verticalAlign=bottom;endArrow=block;" parent="gSnDp3KwC2gbsZZSmgc5-1" edge="1">
          <mxGeometry x="0.018" width="80" relative="1" as="geometry">
            <mxPoint x="490" y="320" as="sourcePoint" />
            <mxPoint x="330" y="320" as="targetPoint" />
            <Array as="points" />
            <mxPoint as="offset" />
          </mxGeometry>
        </mxCell>
        <mxCell id="LEyl2nw-NiYFt5qGyoke-2" value="1.3 return Updated nodedown " style="html=1;verticalAlign=bottom;endArrow=block;" parent="gSnDp3KwC2gbsZZSmgc5-1" target="siBZ8K74GjKJBZGdMy9o-20" edge="1">
          <mxGeometry x="0.018" width="80" relative="1" as="geometry">
            <mxPoint x="325" y="330" as="sourcePoint" />
            <mxPoint x="109.99999999999991" y="330.03" as="targetPoint" />
            <Array as="points" />
            <mxPoint as="offset" />
          </mxGeometry>
        </mxCell>
        <mxCell id="LEyl2nw-NiYFt5qGyoke-4" value="2.2 return Success " style="html=1;verticalAlign=bottom;endArrow=block;" parent="gSnDp3KwC2gbsZZSmgc5-1" edge="1">
          <mxGeometry x="0.018" width="80" relative="1" as="geometry">
            <mxPoint x="500" y="349.5" as="sourcePoint" />
            <mxPoint x="340" y="349.5" as="targetPoint" />
            <Array as="points" />
            <mxPoint as="offset" />
          </mxGeometry>
        </mxCell>
        <mxCell id="LEyl2nw-NiYFt5qGyoke-5" value="2.3 return Node and down" style="html=1;verticalAlign=bottom;endArrow=block;" parent="gSnDp3KwC2gbsZZSmgc5-1" target="siBZ8K74GjKJBZGdMy9o-20" edge="1">
          <mxGeometry x="0.018" width="80" relative="1" as="geometry">
            <mxPoint x="335" y="359.5" as="sourcePoint" />
            <mxPoint x="109.5" y="359.5" as="targetPoint" />
            <Array as="points" />
            <mxPoint as="offset" />
          </mxGeometry>
        </mxCell>
        <mxCell id="LEyl2nw-NiYFt5qGyoke-6" value="2.1 getPreference" style="html=1;verticalAlign=bottom;endArrow=block;" parent="gSnDp3KwC2gbsZZSmgc5-1" edge="1">
          <mxGeometry x="0.018" width="80" relative="1" as="geometry">
            <mxPoint x="330.0014285714285" y="210" as="sourcePoint" />
            <mxPoint x="484.97" y="210" as="targetPoint" />
            <Array as="points" />
            <mxPoint as="offset" />
          </mxGeometry>
        </mxCell>
        <mxCell id="LEyl2nw-NiYFt5qGyoke-7" value="3.1 deletePreference" style="html=1;verticalAlign=bottom;endArrow=block;" parent="gSnDp3KwC2gbsZZSmgc5-1" edge="1">
          <mxGeometry x="0.018" width="80" relative="1" as="geometry">
            <mxPoint x="340.0014285714285" y="260" as="sourcePoint" />
            <mxPoint x="494.97" y="260" as="targetPoint" />
            <Array as="points">
              <mxPoint x="422.97" y="260" />
            </Array>
            <mxPoint as="offset" />
          </mxGeometry>
        </mxCell>
        <mxCell id="LEyl2nw-NiYFt5qGyoke-8" value="3.2 return Success " style="html=1;verticalAlign=bottom;endArrow=block;" parent="gSnDp3KwC2gbsZZSmgc5-1" edge="1">
          <mxGeometry x="0.018" width="80" relative="1" as="geometry">
            <mxPoint x="500.5" y="380" as="sourcePoint" />
            <mxPoint x="340.5" y="380" as="targetPoint" />
            <Array as="points" />
            <mxPoint as="offset" />
          </mxGeometry>
        </mxCell>
        <mxCell id="LEyl2nw-NiYFt5qGyoke-9" value="3.3 return Success " style="html=1;verticalAlign=bottom;endArrow=block;" parent="gSnDp3KwC2gbsZZSmgc5-1" edge="1">
          <mxGeometry x="0.018" width="80" relative="1" as="geometry">
            <mxPoint x="335.5" y="390" as="sourcePoint" />
            <mxPoint x="100" y="390" as="targetPoint" />
            <Array as="points" />
            <mxPoint as="offset" />
          </mxGeometry>
        </mxCell>
        <mxCell id="LEyl2nw-NiYFt5qGyoke-10" value="&lt;div&gt;No User exists&lt;br&gt;&lt;/div&gt;" style="shape=umlFrame;whiteSpace=wrap;html=1;" parent="gSnDp3KwC2gbsZZSmgc5-1" vertex="1">
          <mxGeometry x="50" y="440" width="470" height="130" as="geometry" />
        </mxCell>
        <mxCell id="LEyl2nw-NiYFt5qGyoke-11" value="1.2 return Success " style="html=1;verticalAlign=bottom;endArrow=block;" parent="gSnDp3KwC2gbsZZSmgc5-1" edge="1">
          <mxGeometry x="0.018" width="80" relative="1" as="geometry">
            <mxPoint x="490" y="470" as="sourcePoint" />
            <mxPoint x="340" y="470" as="targetPoint" />
            <Array as="points" />
            <mxPoint as="offset" />
          </mxGeometry>
        </mxCell>
        <mxCell id="LEyl2nw-NiYFt5qGyoke-12" value="1.3 return Updated node and down " style="html=1;verticalAlign=bottom;endArrow=block;" parent="gSnDp3KwC2gbsZZSmgc5-1" edge="1">
          <mxGeometry x="0.018" width="80" relative="1" as="geometry">
            <mxPoint x="325" y="480" as="sourcePoint" />
            <mxPoint x="99.5" y="480" as="targetPoint" />
            <Array as="points" />
            <mxPoint as="offset" />
          </mxGeometry>
        </mxCell>
        <mxCell id="LEyl2nw-NiYFt5qGyoke-13" value="2.2 return Success " style="html=1;verticalAlign=bottom;endArrow=block;" parent="gSnDp3KwC2gbsZZSmgc5-1" edge="1">
          <mxGeometry x="0.018" width="80" relative="1" as="geometry">
            <mxPoint x="500" y="499.5" as="sourcePoint" />
            <mxPoint x="340" y="499.5" as="targetPoint" />
            <Array as="points" />
            <mxPoint as="offset" />
          </mxGeometry>
        </mxCell>
        <mxCell id="LEyl2nw-NiYFt5qGyoke-14" value="2.3 return null" style="html=1;verticalAlign=bottom;endArrow=block;" parent="gSnDp3KwC2gbsZZSmgc5-1" edge="1">
          <mxGeometry x="0.018" width="80" relative="1" as="geometry">
            <mxPoint x="335" y="509.5" as="sourcePoint" />
            <mxPoint x="99.5" y="509.5" as="targetPoint" />
            <Array as="points" />
            <mxPoint as="offset" />
          </mxGeometry>
        </mxCell>
        <mxCell id="LEyl2nw-NiYFt5qGyoke-15" value="3.2 return 404 " style="html=1;verticalAlign=bottom;endArrow=block;" parent="gSnDp3KwC2gbsZZSmgc5-1" edge="1">
          <mxGeometry x="0.018" width="80" relative="1" as="geometry">
            <mxPoint x="497.5" y="530" as="sourcePoint" />
            <mxPoint x="337.5" y="530" as="targetPoint" />
            <Array as="points" />
            <mxPoint as="offset" />
          </mxGeometry>
        </mxCell>
        <mxCell id="LEyl2nw-NiYFt5qGyoke-16" value="3.3 return 404 " style="html=1;verticalAlign=bottom;endArrow=block;" parent="gSnDp3KwC2gbsZZSmgc5-1" edge="1">
          <mxGeometry x="0.018" width="80" relative="1" as="geometry">
            <mxPoint x="335.5" y="540" as="sourcePoint" />
            <mxPoint x="100" y="540" as="targetPoint" />
            <Array as="points" />
            <mxPoint as="offset" />
          </mxGeometry>
        </mxCell>
        <mxCell id="LEyl2nw-NiYFt5qGyoke-17" value="Node is null" style="shape=umlFrame;whiteSpace=wrap;html=1;" parent="gSnDp3KwC2gbsZZSmgc5-1" vertex="1">
          <mxGeometry x="50" y="590" width="470" height="130" as="geometry" />
        </mxCell>
        <mxCell id="LEyl2nw-NiYFt5qGyoke-18" value="1.2 return 403" style="html=1;verticalAlign=bottom;endArrow=block;" parent="gSnDp3KwC2gbsZZSmgc5-1" edge="1">
          <mxGeometry x="-0.25" width="80" relative="1" as="geometry">
            <mxPoint x="490" y="620" as="sourcePoint" />
            <mxPoint x="330" y="620" as="targetPoint" />
            <Array as="points" />
            <mxPoint as="offset" />
          </mxGeometry>
        </mxCell>
        <mxCell id="LEyl2nw-NiYFt5qGyoke-19" value="1.3 return 403" style="html=1;verticalAlign=bottom;endArrow=block;" parent="gSnDp3KwC2gbsZZSmgc5-1" edge="1">
          <mxGeometry x="0.018" width="80" relative="1" as="geometry">
            <mxPoint x="325" y="630" as="sourcePoint" />
            <mxPoint x="99.5" y="630" as="targetPoint" />
            <Array as="points" />
            <mxPoint as="offset" />
          </mxGeometry>
        </mxCell>
        <mxCell id="LEyl2nw-NiYFt5qGyoke-20" value="2.2 return Success " style="html=1;verticalAlign=bottom;endArrow=block;" parent="gSnDp3KwC2gbsZZSmgc5-1" edge="1">
          <mxGeometry x="0.018" width="80" relative="1" as="geometry">
            <mxPoint x="500" y="649.5" as="sourcePoint" />
            <mxPoint x="340" y="649.5" as="targetPoint" />
            <Array as="points" />
            <mxPoint as="offset" />
          </mxGeometry>
        </mxCell>
        <mxCell id="LEyl2nw-NiYFt5qGyoke-21" value="2.3 return all prefs" style="html=1;verticalAlign=bottom;endArrow=block;" parent="gSnDp3KwC2gbsZZSmgc5-1" edge="1">
          <mxGeometry x="-0.1083" width="80" relative="1" as="geometry">
            <mxPoint x="335" y="659.5" as="sourcePoint" />
            <mxPoint x="99.5" y="659.5" as="targetPoint" />
            <Array as="points" />
            <mxPoint as="offset" />
          </mxGeometry>
        </mxCell>
        <mxCell id="LEyl2nw-NiYFt5qGyoke-22" value="3.2return 403 " style="html=1;verticalAlign=bottom;endArrow=block;" parent="gSnDp3KwC2gbsZZSmgc5-1" edge="1">
          <mxGeometry x="0.018" width="80" relative="1" as="geometry">
            <mxPoint x="500.5" y="680" as="sourcePoint" />
            <mxPoint x="340.5" y="680" as="targetPoint" />
            <Array as="points" />
            <mxPoint as="offset" />
          </mxGeometry>
        </mxCell>
        <mxCell id="LEyl2nw-NiYFt5qGyoke-23" value="3.3 return 403 " style="html=1;verticalAlign=bottom;endArrow=block;" parent="gSnDp3KwC2gbsZZSmgc5-1" edge="1">
          <mxGeometry x="0.018" width="80" relative="1" as="geometry">
            <mxPoint x="335.5" y="690" as="sourcePoint" />
            <mxPoint x="100" y="690" as="targetPoint" />
            <Array as="points" />
            <mxPoint as="offset" />
          </mxGeometry>
        </mxCell>
        <mxCell id="LEyl2nw-NiYFt5qGyoke-24" value="Node does not exist" style="shape=umlFrame;whiteSpace=wrap;html=1;" parent="gSnDp3KwC2gbsZZSmgc5-1" vertex="1">
          <mxGeometry x="50" y="740" width="470" height="140" as="geometry" />
        </mxCell>
        <mxCell id="LEyl2nw-NiYFt5qGyoke-25" value="1.2 return Success" style="html=1;verticalAlign=bottom;endArrow=block;" parent="gSnDp3KwC2gbsZZSmgc5-1" edge="1">
          <mxGeometry x="-0.25" width="80" relative="1" as="geometry">
            <mxPoint x="490" y="770" as="sourcePoint" />
            <mxPoint x="330" y="770" as="targetPoint" />
            <Array as="points" />
            <mxPoint as="offset" />
          </mxGeometry>
        </mxCell>
        <mxCell id="LEyl2nw-NiYFt5qGyoke-26" value="1.3 return Node and down" style="html=1;verticalAlign=bottom;endArrow=block;" parent="gSnDp3KwC2gbsZZSmgc5-1" edge="1">
          <mxGeometry x="0.018" width="80" relative="1" as="geometry">
            <mxPoint x="325" y="780" as="sourcePoint" />
            <mxPoint x="99.5" y="780" as="targetPoint" />
            <Array as="points" />
            <mxPoint as="offset" />
          </mxGeometry>
        </mxCell>
        <mxCell id="LEyl2nw-NiYFt5qGyoke-27" value="2.2 return Success " style="html=1;verticalAlign=bottom;endArrow=block;" parent="gSnDp3KwC2gbsZZSmgc5-1" edge="1">
          <mxGeometry x="0.018" width="80" relative="1" as="geometry">
            <mxPoint x="500" y="799.5" as="sourcePoint" />
            <mxPoint x="340" y="799.5" as="targetPoint" />
            <Array as="points" />
            <mxPoint as="offset" />
          </mxGeometry>
        </mxCell>
        <mxCell id="LEyl2nw-NiYFt5qGyoke-28" value="2.3 return null" style="html=1;verticalAlign=bottom;endArrow=block;" parent="gSnDp3KwC2gbsZZSmgc5-1" edge="1">
          <mxGeometry x="-0.1083" width="80" relative="1" as="geometry">
            <mxPoint x="335" y="809.5" as="sourcePoint" />
            <mxPoint x="99.5" y="809.5" as="targetPoint" />
            <Array as="points" />
            <mxPoint as="offset" />
          </mxGeometry>
        </mxCell>
        <mxCell id="LEyl2nw-NiYFt5qGyoke-29" value="3.2return 404 " style="html=1;verticalAlign=bottom;endArrow=block;" parent="gSnDp3KwC2gbsZZSmgc5-1" edge="1">
          <mxGeometry x="0.018" width="80" relative="1" as="geometry">
            <mxPoint x="500.5" y="830" as="sourcePoint" />
            <mxPoint x="340.5" y="830" as="targetPoint" />
            <Array as="points" />
            <mxPoint as="offset" />
          </mxGeometry>
        </mxCell>
        <mxCell id="LEyl2nw-NiYFt5qGyoke-30" value="3.3 return 400 " style="html=1;verticalAlign=bottom;endArrow=block;" parent="gSnDp3KwC2gbsZZSmgc5-1" edge="1">
          <mxGeometry x="0.018" width="80" relative="1" as="geometry">
            <mxPoint x="335.5" y="840" as="sourcePoint" />
            <mxPoint x="100" y="840" as="targetPoint" />
            <Array as="points" />
            <mxPoint as="offset" />
          </mxGeometry>
        </mxCell>
        <mxCell id="LEyl2nw-NiYFt5qGyoke-31" value="User is Null" style="shape=umlFrame;whiteSpace=wrap;html=1;" parent="gSnDp3KwC2gbsZZSmgc5-1" vertex="1">
          <mxGeometry x="50" y="900" width="470" height="130" as="geometry" />
        </mxCell>
        <mxCell id="LEyl2nw-NiYFt5qGyoke-32" value="1.2 return 404 " style="html=1;verticalAlign=bottom;endArrow=block;" parent="gSnDp3KwC2gbsZZSmgc5-1" edge="1">
          <mxGeometry x="0.018" width="80" relative="1" as="geometry">
            <mxPoint x="490" y="930" as="sourcePoint" />
            <mxPoint x="340" y="930" as="targetPoint" />
            <Array as="points" />
            <mxPoint as="offset" />
          </mxGeometry>
        </mxCell>
        <mxCell id="LEyl2nw-NiYFt5qGyoke-33" value="1.3 return 404" style="html=1;verticalAlign=bottom;endArrow=block;" parent="gSnDp3KwC2gbsZZSmgc5-1" edge="1">
          <mxGeometry x="0.018" width="80" relative="1" as="geometry">
            <mxPoint x="325" y="940" as="sourcePoint" />
            <mxPoint x="99.5" y="940" as="targetPoint" />
            <Array as="points" />
            <mxPoint as="offset" />
          </mxGeometry>
        </mxCell>
        <mxCell id="LEyl2nw-NiYFt5qGyoke-34" value="2.2 return 404 " style="html=1;verticalAlign=bottom;endArrow=block;" parent="gSnDp3KwC2gbsZZSmgc5-1" edge="1">
          <mxGeometry x="0.018" width="80" relative="1" as="geometry">
            <mxPoint x="500" y="959.5" as="sourcePoint" />
            <mxPoint x="340" y="959.5" as="targetPoint" />
            <Array as="points" />
            <mxPoint as="offset" />
          </mxGeometry>
        </mxCell>
        <mxCell id="LEyl2nw-NiYFt5qGyoke-35" value="2.3 return 404" style="html=1;verticalAlign=bottom;endArrow=block;" parent="gSnDp3KwC2gbsZZSmgc5-1" edge="1">
          <mxGeometry x="0.018" width="80" relative="1" as="geometry">
            <mxPoint x="335" y="969.5" as="sourcePoint" />
            <mxPoint x="99.5" y="969.5" as="targetPoint" />
            <Array as="points" />
            <mxPoint as="offset" />
          </mxGeometry>
        </mxCell>
        <mxCell id="LEyl2nw-NiYFt5qGyoke-36" value="3.2 return 404 " style="html=1;verticalAlign=bottom;endArrow=block;" parent="gSnDp3KwC2gbsZZSmgc5-1" edge="1">
          <mxGeometry x="0.018" width="80" relative="1" as="geometry">
            <mxPoint x="500.5" y="990" as="sourcePoint" />
            <mxPoint x="340.5" y="990" as="targetPoint" />
            <Array as="points" />
            <mxPoint as="offset" />
          </mxGeometry>
        </mxCell>
        <mxCell id="LEyl2nw-NiYFt5qGyoke-37" value="3.3 return 404 " style="html=1;verticalAlign=bottom;endArrow=block;" parent="gSnDp3KwC2gbsZZSmgc5-1" edge="1">
          <mxGeometry x="0.018" width="80" relative="1" as="geometry">
            <mxPoint x="335.5" y="1000" as="sourcePoint" />
            <mxPoint x="100" y="1000" as="targetPoint" />
            <Array as="points" />
            <mxPoint as="offset" />
          </mxGeometry>
        </mxCell>
      </root>
    </mxGraphModel>
  </diagram>
  <diagram id="vTOjAExvyYkQnKp0I804" name="SvcV-2">
    <mxGraphModel dx="1422" dy="867" grid="1" gridSize="10" guides="1" tooltips="1" connect="1" arrows="1" fold="1" page="1" pageScale="1" pageWidth="850" pageHeight="1100" math="0" shadow="0">
      <root>
        <mxCell id="OOzcU1OjSVzUUfSUfOFs-0" />
        <mxCell id="OOzcU1OjSVzUUfSUfOFs-1" parent="OOzcU1OjSVzUUfSUfOFs-0" />
        <mxCell id="2mI4BmX1oM57QoQF2Wk9-4" value="&lt;p style=&quot;margin: 0px ; margin-top: 4px ; text-align: center&quot;&gt;&lt;i&gt;&amp;lt;&amp;lt;ServiceSpecification&amp;gt;&amp;gt;&lt;/i&gt;&lt;br&gt;&lt;b&gt;UserPreferenceService&lt;/b&gt;&lt;/p&gt;&lt;hr size=&quot;1&quot;&gt;&lt;p style=&quot;margin: 0px ; margin-left: 4px&quot;&gt;&lt;br&gt;&lt;/p&gt;" style="verticalAlign=top;align=left;overflow=fill;fontSize=12;fontFamily=Helvetica;html=1;" parent="OOzcU1OjSVzUUfSUfOFs-1" vertex="1">
          <mxGeometry x="270" y="100" width="270" height="130" as="geometry" />
        </mxCell>
        <mxCell id="2mI4BmX1oM57QoQF2Wk9-5" value="«ServiceSpecificationRole»&lt;br&gt;&lt;b&gt;PO: PreferenceObject&lt;/b&gt;" style="html=1;" parent="OOzcU1OjSVzUUfSUfOFs-1" vertex="1">
          <mxGeometry x="330" y="160" width="150" height="50" as="geometry" />
        </mxCell>
        <mxCell id="2mI4BmX1oM57QoQF2Wk9-7" style="edgeStyle=orthogonalEdgeStyle;rounded=0;orthogonalLoop=1;jettySize=auto;html=1;exitX=0.5;exitY=1;exitDx=0;exitDy=0;endArrow=classic;endFill=1;dashed=1;entryX=0.5;entryY=0;entryDx=0;entryDy=0;" parent="OOzcU1OjSVzUUfSUfOFs-1" source="2mI4BmX1oM57QoQF2Wk9-4" edge="1">
          <mxGeometry relative="1" as="geometry">
            <mxPoint x="645" y="380" as="targetPoint" />
            <mxPoint x="645" y="390" as="sourcePoint" />
          </mxGeometry>
        </mxCell>
        <mxCell id="2mI4BmX1oM57QoQF2Wk9-9" style="edgeStyle=orthogonalEdgeStyle;rounded=0;orthogonalLoop=1;jettySize=auto;html=1;endArrow=classic;endFill=1;dashed=1;entryX=0.5;entryY=0;entryDx=0;entryDy=0;" parent="OOzcU1OjSVzUUfSUfOFs-1" target="2mI4BmX1oM57QoQF2Wk9-15" edge="1">
          <mxGeometry relative="1" as="geometry">
            <mxPoint x="405" y="450" as="targetPoint" />
            <mxPoint x="405" y="230" as="sourcePoint" />
          </mxGeometry>
        </mxCell>
        <mxCell id="2mI4BmX1oM57QoQF2Wk9-11" style="edgeStyle=orthogonalEdgeStyle;rounded=0;orthogonalLoop=1;jettySize=auto;html=1;exitX=0.5;exitY=1;exitDx=0;exitDy=0;endArrow=classic;endFill=1;dashed=1;entryX=0.5;entryY=0;entryDx=0;entryDy=0;" parent="OOzcU1OjSVzUUfSUfOFs-1" source="2mI4BmX1oM57QoQF2Wk9-4" target="2mI4BmX1oM57QoQF2Wk9-13" edge="1">
          <mxGeometry relative="1" as="geometry">
            <mxPoint x="165" y="450" as="targetPoint" />
            <mxPoint x="165" y="390" as="sourcePoint" />
          </mxGeometry>
        </mxCell>
        <mxCell id="2mI4BmX1oM57QoQF2Wk9-13" value="«Capability»&lt;br&gt;&lt;b&gt;Get Preference&lt;/b&gt;" style="html=1;" parent="OOzcU1OjSVzUUfSUfOFs-1" vertex="1">
          <mxGeometry x="80" y="380" width="170" height="50" as="geometry" />
        </mxCell>
        <mxCell id="2mI4BmX1oM57QoQF2Wk9-15" value="&lt;div&gt;«Capability»&lt;b&gt;&lt;br&gt;&lt;/b&gt;&lt;/div&gt;&lt;div&gt;&lt;b&gt;Update Preference&lt;/b&gt;&lt;/div&gt;" style="html=1;" parent="OOzcU1OjSVzUUfSUfOFs-1" vertex="1">
          <mxGeometry x="320" y="380" width="170" height="50" as="geometry" />
        </mxCell>
        <mxCell id="2mI4BmX1oM57QoQF2Wk9-16" value="&amp;lt;&amp;lt;Exhibitis&amp;gt;&amp;gt;" style="text;html=1;strokeColor=none;fillColor=none;align=center;verticalAlign=middle;whiteSpace=wrap;rounded=0;" parent="OOzcU1OjSVzUUfSUfOFs-1" vertex="1">
          <mxGeometry x="180" y="340" width="70" height="20" as="geometry" />
        </mxCell>
        <mxCell id="2mI4BmX1oM57QoQF2Wk9-17" value="&amp;lt;&amp;lt;Exhibitis&amp;gt;&amp;gt;" style="text;html=1;strokeColor=none;fillColor=none;align=center;verticalAlign=middle;whiteSpace=wrap;rounded=0;" parent="OOzcU1OjSVzUUfSUfOFs-1" vertex="1">
          <mxGeometry x="660" y="340" width="70" height="20" as="geometry" />
        </mxCell>
        <mxCell id="2mI4BmX1oM57QoQF2Wk9-18" value="&amp;lt;&amp;lt;Exhibitis&amp;gt;&amp;gt;" style="text;html=1;strokeColor=none;fillColor=none;align=center;verticalAlign=middle;whiteSpace=wrap;rounded=0;" parent="OOzcU1OjSVzUUfSUfOFs-1" vertex="1">
          <mxGeometry x="420" y="340" width="70" height="20" as="geometry" />
        </mxCell>
        <mxCell id="2mI4BmX1oM57QoQF2Wk9-19" value="&lt;div&gt;«Capability»&lt;b&gt;&lt;br&gt;&lt;/b&gt;&lt;/div&gt;&lt;div&gt;&lt;b&gt;DeletePreference&lt;/b&gt;&lt;/div&gt;" style="html=1;" parent="OOzcU1OjSVzUUfSUfOFs-1" vertex="1">
          <mxGeometry x="560" y="380" width="170" height="50" as="geometry" />
        </mxCell>
      </root>
    </mxGraphModel>
  </diagram>
  <diagram id="EfdNR2x8nCS9wXr8kiAz" name="DIV Diagrams">
    <mxGraphModel dx="1422" dy="867" grid="1" gridSize="10" guides="1" tooltips="1" connect="1" arrows="1" fold="1" page="1" pageScale="1" pageWidth="850" pageHeight="1100" math="0" shadow="0">
      <root>
        <mxCell id="i9fqTmEd6KxjZFwZQRwE-0" />
        <mxCell id="i9fqTmEd6KxjZFwZQRwE-1" parent="i9fqTmEd6KxjZFwZQRwE-0" />
        <mxCell id="uHoOXOLrtJXVABSQkiwg-11" value="DIV-2" style="text;align=center;fontStyle=1;verticalAlign=middle;spacingLeft=3;spacingRight=3;rotatable=0;points=[[0,0.5],[1,0.5]];portConstraint=eastwest;strokeColor=#000000;" parent="i9fqTmEd6KxjZFwZQRwE-1" vertex="1">
          <mxGeometry x="60" y="30" width="80" height="26" as="geometry" />
        </mxCell>
        <mxCell id="uHoOXOLrtJXVABSQkiwg-12" value="DIV-3" style="text;align=center;fontStyle=1;verticalAlign=middle;spacingLeft=3;spacingRight=3;rotatable=0;points=[[0,0.5],[1,0.5]];portConstraint=eastwest;strokeColor=#000000;" parent="i9fqTmEd6KxjZFwZQRwE-1" vertex="1">
          <mxGeometry x="60" y="330" width="80" height="26" as="geometry" />
        </mxCell>
        <mxCell id="uHoOXOLrtJXVABSQkiwg-70" value="«Entity Item»&#xa;UserPreference" style="swimlane;fontStyle=0;childLayout=stackLayout;horizontal=1;startSize=26;fillColor=none;horizontalStack=0;resizeParent=1;resizeParentMax=0;resizeLast=0;collapsible=1;marginBottom=0;" parent="i9fqTmEd6KxjZFwZQRwE-1" vertex="1">
          <mxGeometry x="323" y="190" width="140" height="78" as="geometry" />
        </mxCell>
        <mxCell id="uHoOXOLrtJXVABSQkiwg-71" value="+ userId: string" style="text;strokeColor=none;fillColor=none;align=left;verticalAlign=top;spacingLeft=4;spacingRight=4;overflow=hidden;rotatable=0;points=[[0,0.5],[1,0.5]];portConstraint=eastwest;" parent="uHoOXOLrtJXVABSQkiwg-70" vertex="1">
          <mxGeometry y="26" width="140" height="26" as="geometry" />
        </mxCell>
        <mxCell id="uHoOXOLrtJXVABSQkiwg-72" value="+ preferences:string" style="text;strokeColor=none;fillColor=none;align=left;verticalAlign=top;spacingLeft=4;spacingRight=4;overflow=hidden;rotatable=0;points=[[0,0.5],[1,0.5]];portConstraint=eastwest;" parent="uHoOXOLrtJXVABSQkiwg-70" vertex="1">
          <mxGeometry y="52" width="140" height="26" as="geometry" />
        </mxCell>
        <mxCell id="uHoOXOLrtJXVABSQkiwg-76" value="«exchangeElement»&lt;br&gt;&lt;div&gt;&lt;b&gt;UserPreferenceService&lt;/b&gt;&lt;/div&gt;" style="html=1;" parent="i9fqTmEd6KxjZFwZQRwE-1" vertex="1">
          <mxGeometry x="320.5" y="56" width="145" height="50" as="geometry" />
        </mxCell>
        <mxCell id="uHoOXOLrtJXVABSQkiwg-77" value="Use" style="endArrow=open;endSize=12;dashed=1;html=1;exitX=0.5;exitY=1;exitDx=0;exitDy=0;" parent="i9fqTmEd6KxjZFwZQRwE-1" source="uHoOXOLrtJXVABSQkiwg-76" target="uHoOXOLrtJXVABSQkiwg-70" edge="1">
          <mxGeometry width="160" relative="1" as="geometry">
            <mxPoint x="330" y="350" as="sourcePoint" />
            <mxPoint x="490" y="350" as="targetPoint" />
          </mxGeometry>
        </mxCell>
        <mxCell id="uHoOXOLrtJXVABSQkiwg-78" value="«Entity Item»&#xa;UserPreference" style="swimlane;fontStyle=0;childLayout=stackLayout;horizontal=1;startSize=26;fillColor=none;horizontalStack=0;resizeParent=1;resizeParentMax=0;resizeLast=0;collapsible=1;marginBottom=0;" parent="i9fqTmEd6KxjZFwZQRwE-1" vertex="1">
          <mxGeometry x="310" y="400" width="140" height="78" as="geometry" />
        </mxCell>
        <mxCell id="uHoOXOLrtJXVABSQkiwg-79" value="+ userId: string" style="text;strokeColor=none;fillColor=none;align=left;verticalAlign=top;spacingLeft=4;spacingRight=4;overflow=hidden;rotatable=0;points=[[0,0.5],[1,0.5]];portConstraint=eastwest;" parent="uHoOXOLrtJXVABSQkiwg-78" vertex="1">
          <mxGeometry y="26" width="140" height="26" as="geometry" />
        </mxCell>
        <mxCell id="uHoOXOLrtJXVABSQkiwg-80" value="+ preferences:string" style="text;strokeColor=none;fillColor=none;align=left;verticalAlign=top;spacingLeft=4;spacingRight=4;overflow=hidden;rotatable=0;points=[[0,0.5],[1,0.5]];portConstraint=eastwest;" parent="uHoOXOLrtJXVABSQkiwg-78" vertex="1">
          <mxGeometry y="52" width="140" height="26" as="geometry" />
        </mxCell>
      </root>
    </mxGraphModel>
  </diagram>
</mxfile>
